# This file uses meters as units for non-parametric coordinates.

mtllib ChristalUV.mtl
g default
v -11.921632 26.445267 8.008916
v -15.178611 22.098991 7.262621
v -10.154555 24.308962 12.738461
v -13.411535 19.962687 11.992167
v -25.856716 31.591583 18.717329
v -22.851713 32.181431 11.943755
v -25.860050 29.548809 11.878614
v -19.329283 29.485689 21.244579
v -21.578087 25.820646 20.429323
v -18.680052 33.242279 11.466552
v -24.468567 26.188379 10.443104
v -20.059958 34.244331 15.469967
v -18.489862 32.411163 19.293718
v -26.727270 26.740442 13.268664
v -24.615358 24.355131 17.943514
v -16.414982 30.108065 19.834570
v -21.092863 22.347897 18.077129
v -22.414133 34.591331 14.348120
v -26.675447 28.337673 13.115509
v -24.200909 25.363043 19.739382
v -19.669273 31.431519 20.771215
vt 0.904298 0.062551
vt 0.907957 0.051697
vt 0.929006 0.058165
vt 0.914901 0.073408
vt 0.927137 0.098733
vt 0.910381 0.103967
vt 0.903264 0.098272
vt 0.910588 0.090967
vt 0.888090 0.030791
vt 0.887149 0.021320
vt 0.903472 0.019058
vt 0.898341 0.032635
vt 0.878709 0.069382
vt 0.911994 0.129932
vt 0.927986 0.139569
vt 0.907653 0.148685
vt 0.905217 0.136060
vt 0.908737 0.177605
vt 0.896651 0.164232
vt 0.885560 0.162961
vt 0.878709 0.126180
vt 0.975583 0.098054
vt 0.974718 0.133473
vt 0.971711 0.166818
vt 0.969258 0.028727
vt 0.973965 0.062412
vn -0.049176 0.878584 -0.475050
vn -0.049176 0.878584 -0.475050
vn -0.049176 0.878584 -0.475050
vn -0.049176 0.878584 -0.475050
vn -0.791708 -0.056600 -0.608272
vn -0.791708 -0.056600 -0.608272
vn -0.791708 -0.056600 -0.608272
vn -0.791708 -0.056600 -0.608272
vn 0.405459 0.423774 0.809950
vn 0.405459 0.423774 0.809950
vn 0.405459 0.423774 0.809950
vn 0.405459 0.423774 0.809950
vn -0.767659 0.594507 -0.239294
vn -0.721731 0.631738 -0.282862
vn -0.721731 0.631738 -0.282862
vn -0.764480 0.597304 -0.242484
vn -0.767659 0.594507 -0.239294
vn -0.764480 0.597304 -0.242484
vn -0.785038 0.578558 -0.221328
vn -0.202309 0.288889 -0.935743
vn -0.202309 0.288889 -0.935743
vn -0.202309 0.288889 -0.935743
vn -0.202309 0.288889 -0.935743
vn -0.127665 0.868023 0.479830
vn -0.109084 0.874734 0.472166
vn -0.109084 0.874734 0.472166
vn -0.129572 0.867311 0.480606
vn -0.127665 0.868023 0.479830
vn -0.129572 0.867311 0.480606
vn -0.138363 0.863973 0.484155
vn -0.260610 -0.658085 0.706404
vn -0.260610 -0.658085 0.706404
vn -0.260610 -0.658085 0.706404
vn -0.260610 -0.658085 0.706404
vn 0.718978 0.692766 0.056090
vn 0.718978 0.692766 0.056090
vn 0.718978 0.692766 0.056090
vn 0.718978 0.692766 0.056090
vn -0.477971 -0.851055 -0.217369
vn -0.477971 -0.851055 -0.217369
vn -0.477971 -0.851055 -0.217369
vn -0.477971 -0.851055 -0.217369
vn 0.463564 -0.452573 0.761765
vn 0.463564 -0.452573 0.761765
vn 0.463564 -0.452573 0.761765
vn 0.463564 -0.452573 0.761765
vn -0.320334 0.068262 0.944842
vn -0.339364 0.058244 0.938850
vn -0.339364 0.058244 0.938850
vn -0.321301 0.067755 0.944550
vn -0.320334 0.068262 0.944842
vn -0.321301 0.067755 0.944550
vn -0.312528 0.072337 0.947150
vn -0.943368 -0.152262 0.294744
vn -0.934027 -0.055342 0.352890
vn -0.934027 -0.055342 0.352890
vn -0.943563 -0.158816 0.290630
vn -0.943368 -0.152262 0.294744
vn -0.943563 -0.158816 0.290630
vn -0.943203 -0.208270 0.258829
vn -0.453248 -0.861722 -0.228039
vn -0.453248 -0.861722 -0.228039
vn -0.453248 -0.861722 -0.228039
vn -0.453248 -0.861722 -0.228039
vn 0.455021 -0.456368 0.764646
vn 0.455021 -0.456368 0.764646
vn 0.455021 -0.456368 0.764646
vn 0.455021 -0.456368 0.764646
vn 0.718069 0.693549 0.058027
vn 0.718069 0.693549 0.058027
vn 0.718069 0.693549 0.058027
vn 0.718069 0.693549 0.058027
vn -0.187817 0.294485 -0.937018
vn -0.187817 0.294485 -0.937018
vn -0.187817 0.294485 -0.937018
vn -0.187817 0.294485 -0.937018
s off
g LPChristalUp
usemtl initialShadingGroup
f 18/1/1 12/2/2 10/3/3 6/4/4
f 11/5/5 14/6/6 19/7/7 7/8/8
f 21/9/9 8/10/10 16/11/11 13/12/12
f 18/1/13 6/4/14 7/8/15 19/7/16
f 18/1/17 19/7/18 5/13/19
f 10/3/20 11/5/21 7/8/22 6/4/23
f 21/9/24 13/12/25 12/2/26 18/1/27
f 21/9/28 18/1/29 5/13/30
f 15/14/31 17/15/32 9/16/33 20/17/34
f 16/11/35 10/3/36 12/2/37 13/12/38
f 11/5/39 17/15/40 15/14/41 14/6/42
f 16/18/43 8/19/44 9/16/45 17/15/46
f 20/17/47 9/16/48 8/19/49 21/20/50
f 20/17/51 21/20/52 5/21/53
f 19/7/54 14/6/55 15/14/56 20/17/57
f 19/7/58 20/17/59 5/21/60
f 2/22/61 4/23/62 17/15/63 11/5/64
f 16/18/65 17/15/66 4/23/67 3/24/68
f 3/25/69 1/26/70 10/3/71 16/11/72
f 1/26/73 2/22/74 11/5/75 10/3/76
g default
v 12.437711 22.548210 -9.779518
v 14.349538 24.067993 -4.742310
v 16.020720 18.247454 -9.841831
v 17.932566 19.767262 -4.804622
v 28.586184 32.445408 -15.784026
v 20.864204 32.778065 -14.463806
v 22.930941 34.454765 -11.347313
v 27.613026 24.852962 -16.020466
v 28.788479 25.771162 -11.804189
v 17.964996 29.696203 -16.126823
v 21.508825 32.529705 -7.919822
v 22.068283 29.665289 -18.264505
v 24.906635 26.022978 -18.242825
v 25.137375 33.582367 -9.024980
v 28.528013 28.904648 -8.900537
v 24.660498 23.093241 -16.675840
v 27.075914 24.976315 -7.753797
v 22.308241 32.331917 -17.711855
v 24.686136 34.208340 -10.490859
v 29.701323 28.191914 -10.594471
v 27.031685 26.088099 -17.620750
vt 0.769629 0.136874
vt 0.776977 0.128185
vt 0.795091 0.140231
vt 0.774789 0.152769
vt 0.772776 0.014740
vt 0.762267 0.029747
vt 0.754101 0.028315
vt 0.752144 0.019435
vt 0.766861 0.098428
vt 0.775899 0.091365
vt 0.789619 0.099131
vt 0.776509 0.106526
vt 0.763008 0.167036
vt 0.752178 0.166033
vt 0.742634 0.128502
vt 0.781626 0.180919
vt 0.775115 0.053075
vt 0.796158 0.057333
vt 0.778760 0.071427
vt 0.770643 0.061904
vt 0.742634 0.067143
vt 0.839529 0.027427
vt 0.843464 0.060902
vt 0.845686 0.096194
vt 0.846123 0.131536
vt 0.845152 0.165016
vn -0.559021 0.545840 -0.624143
vn -0.559021 0.545840 -0.624143
vn -0.559021 0.545840 -0.624143
vn -0.559021 0.545840 -0.624143
vn -0.112894 0.890073 0.441617
vn -0.112894 0.890073 0.441617
vn -0.112894 0.890073 0.441617
vn -0.112894 0.890073 0.441617
vn 0.382601 -0.539561 -0.749994
vn 0.382601 -0.539561 -0.749994
vn 0.382601 -0.539561 -0.749994
vn 0.382601 -0.539561 -0.749994
vn 0.038374 0.958085 -0.283902
vn -0.029064 0.949073 -0.313713
vn -0.029064 0.949073 -0.313713
vn 0.033691 0.957629 -0.286026
vn 0.038374 0.958085 -0.283902
vn 0.033691 0.957629 -0.286026
vn 0.065933 0.960251 -0.271241
vn -0.736068 0.669787 0.097929
vn -0.736068 0.669787 0.097929
vn -0.736068 0.669787 0.097929
vn -0.736068 0.669787 0.097929
vn 0.274158 0.195563 -0.941590
vn 0.256765 0.185577 -0.948490
vn 0.256765 0.185577 -0.948490
vn 0.275972 0.196604 -0.940843
vn 0.274158 0.195563 -0.941590
vn 0.275972 0.196604 -0.940843
vn 0.284213 0.201329 -0.937384
vn 0.848358 -0.320184 0.421629
vn 0.848358 -0.320184 0.421629
vn 0.848358 -0.320184 0.421629
vn 0.848358 -0.320184 0.421629
vn -0.445296 -0.372464 -0.814237
vn -0.445296 -0.372464 -0.814237
vn -0.445296 -0.372464 -0.814237
vn -0.445296 -0.372464 -0.814237
vn 0.232972 0.193257 0.953088
vn 0.232972 0.193257 0.953088
vn 0.232972 0.193257 0.953088
vn 0.232972 0.193257 0.953088
vn 0.505165 -0.861813 0.045682
vn 0.505165 -0.861813 0.045682
vn 0.505165 -0.861813 0.045682
vn 0.505165 -0.861813 0.045682
vn 0.941873 -0.132348 -0.308802
vn 0.948887 -0.117349 -0.292988
vn 0.948887 -0.117349 -0.292988
vn 0.942217 -0.131639 -0.308055
vn 0.941873 -0.132348 -0.308802
vn 0.942217 -0.131639 -0.308055
vn 0.938850 -0.138488 -0.315249
vn 0.747353 0.605891 0.272690
vn 0.775851 0.610147 0.160548
vn 0.775851 0.610147 0.160548
vn 0.745174 0.605339 0.279786
vn 0.747353 0.605891 0.272690
vn 0.745174 0.605339 0.279786
vn 0.726443 0.599773 0.335490
vn 0.214949 0.174325 0.960941
vn 0.214949 0.174325 0.960941
vn 0.214949 0.174325 0.960941
vn 0.214949 0.174325 0.960941
vn 0.512340 -0.857316 0.050168
vn 0.512340 -0.857316 0.050168
vn 0.512340 -0.857316 0.050168
vn 0.512340 -0.857316 0.050168
vn -0.443426 -0.372288 -0.815337
vn -0.443426 -0.372288 -0.815337
vn -0.443426 -0.372288 -0.815337
vn -0.443426 -0.372288 -0.815337
vn -0.745332 0.660606 0.089885
vn -0.745332 0.660606 0.089885
vn -0.745332 0.660606 0.089885
vn -0.745332 0.660606 0.089885
s off
g LPChristal2
usemtl initialShadingGroup
f 39/27/77 33/28/78 31/29/79 27/30/80
f 32/31/81 35/32/82 40/33/83 28/34/84
f 42/35/85 29/36/86 37/37/87 34/38/88
f 39/27/89 27/30/90 28/39/91 40/40/92
f 39/27/93 40/40/94 26/41/95
f 31/29/96 32/42/97 28/39/98 27/30/99
f 42/35/100 34/38/101 33/28/102 39/27/103
f 42/35/104 39/27/105 26/41/106
f 36/43/107 38/44/108 30/45/109 41/46/110
f 37/37/111 31/29/112 33/28/113 34/38/114
f 32/31/115 38/44/116 36/43/117 35/32/118
f 37/37/119 29/36/120 30/45/121 38/44/122
f 41/46/123 30/45/124 29/36/125 42/35/126
f 41/46/127 42/35/128 26/47/129
f 40/33/130 35/32/131 36/43/132 41/46/133
f 40/33/134 41/46/135 26/47/136
f 23/48/137 25/49/138 38/44/139 32/31/140
f 37/37/141 38/44/142 25/49/143 24/50/144
f 24/50/145 22/51/146 31/29/147 37/37/148
f 22/51/149 23/52/150 32/42/151 31/29/152
g default
v -17.727606 15.878902 -0.292849
v -19.981159 12.871658 -0.809231
v -17.945293 15.397071 3.463337
v -20.198849 12.389827 2.946976
v -28.898935 21.516201 1.698160
v -25.241713 20.534739 -1.782712
v -27.366238 18.797123 -2.128744
v -25.517212 20.584101 5.341501
v -27.052513 18.007872 4.922044
v -22.364752 21.115395 -1.178438
v -26.390759 16.275448 -2.032629
v -24.162884 22.587637 0.735832
v -24.256878 22.126961 3.828988
v -28.495422 17.219994 -0.989218
v -28.498857 16.560078 2.869045
v -23.249290 20.696037 5.124256
v -26.438702 15.234522 4.238809
v -25.363672 22.608547 -0.632032
v -28.294460 18.247122 -1.361355
v -28.598143 17.583788 3.896070
v -25.459303 21.780706 4.606622
vt 0.402658 0.225747
vt 0.405190 0.218237
vt 0.419754 0.222712
vt 0.409994 0.233259
vt 0.418461 0.250781
vt 0.406867 0.254403
vt 0.401943 0.250463
vt 0.407010 0.245408
vt 0.391444 0.203771
vt 0.390793 0.197219
vt 0.402087 0.195653
vt 0.398537 0.205048
vt 0.384953 0.230474
vt 0.407983 0.272368
vt 0.419048 0.279036
vt 0.404979 0.285344
vt 0.403294 0.276609
vt 0.405729 0.305353
vt 0.397367 0.296101
vt 0.389692 0.295222
vt 0.384953 0.269772
vt 0.451981 0.250311
vt 0.451382 0.274818
vt 0.449301 0.297890
vt 0.447605 0.202344
vt 0.450861 0.225650
vn 0.228308 0.704464 -0.672016
vn 0.228308 0.704464 -0.672016
vn 0.228308 0.704464 -0.672016
vn 0.228308 0.704464 -0.672016
vn -0.520962 -0.222432 -0.824089
vn -0.520962 -0.222432 -0.824089
vn -0.520962 -0.222432 -0.824089
vn -0.520962 -0.222432 -0.824089
vn 0.133981 0.635761 0.760169
vn 0.133981 0.635761 0.760169
vn 0.133981 0.635761 0.760169
vn 0.133981 0.635760 0.760170
vn -0.554913 0.507215 -0.659397
vn -0.492366 0.529858 -0.690526
vn -0.492366 0.529858 -0.690526
vn -0.550496 0.508942 -0.661765
vn -0.554913 0.507215 -0.659397
vn -0.550496 0.508942 -0.661765
vn -0.579331 0.497293 -0.645814
vn 0.182925 0.008334 -0.983092
vn 0.182926 0.008334 -0.983091
vn 0.182926 0.008334 -0.983091
vn 0.182926 0.008334 -0.983091
vn -0.188794 0.970728 0.148473
vn -0.168050 0.974768 0.146925
vn -0.168050 0.974768 0.146925
vn -0.190921 0.970288 0.148629
vn -0.188794 0.970728 0.148473
vn -0.190921 0.970288 0.148629
vn -0.200727 0.968198 0.149337
vn -0.572376 -0.423706 0.702039
vn -0.572376 -0.423706 0.702039
vn -0.572376 -0.423706 0.702039
vn -0.572376 -0.423706 0.702039
vn 0.726738 0.672766 0.138700
vn 0.726738 0.672766 0.138700
vn 0.726738 0.672766 0.138700
vn 0.726738 0.672766 0.138700
vn -0.464228 -0.873101 -0.148954
vn -0.464228 -0.873101 -0.148954
vn -0.464228 -0.873101 -0.148954
vn -0.464228 -0.873101 -0.148954
vn 0.102261 -0.217689 0.970646
vn 0.102261 -0.217689 0.970646
vn 0.102261 -0.217689 0.970646
vn 0.102261 -0.217689 0.970646
vn -0.628136 0.341070 0.699369
vn -0.644776 0.329927 0.689502
vn -0.644776 0.329927 0.689501
vn -0.628985 0.340510 0.698878
vn -0.628136 0.341070 0.699369
vn -0.628985 0.340510 0.698878
vn -0.621261 0.345565 0.703292
vn -0.997144 -0.051940 -0.054822
vn -0.998023 0.057548 -0.025270
vn -0.998023 0.057548 -0.025270
vn -0.996616 -0.059401 -0.056817
vn -0.997144 -0.051940 -0.054822
vn -0.996616 -0.059401 -0.056817
vn -0.990655 -0.115931 -0.071850
vn -0.438757 -0.886623 -0.146262
vn -0.438757 -0.886623 -0.146262
vn -0.438757 -0.886623 -0.146262
vn -0.438757 -0.886623 -0.146262
vn 0.092872 -0.220410 0.970976
vn 0.092872 -0.220410 0.970976
vn 0.092872 -0.220410 0.970976
vn 0.092872 -0.220410 0.970976
vn 0.725292 0.674083 0.139868
vn 0.725292 0.674083 0.139868
vn 0.725292 0.674083 0.139868
vn 0.725292 0.674083 0.139868
vn 0.197456 0.013190 -0.980223
vn 0.197456 0.013190 -0.980223
vn 0.197456 0.013190 -0.980223
vn 0.197456 0.013190 -0.980223
s off
g LPChrista3
usemtl initialShadingGroup
f 60/53/153 54/54/154 52/55/155 48/56/156
f 53/57/157 56/58/158 61/59/159 49/60/160
f 63/61/161 50/62/162 58/63/163 55/64/164
f 60/53/165 48/56/166 49/60/167 61/59/168
f 60/53/169 61/59/170 47/65/171
f 52/55/172 53/57/173 49/60/174 48/56/175
f 63/61/176 55/64/177 54/54/178 60/53/179
f 63/61/180 60/53/181 47/65/182
f 57/66/183 59/67/184 51/68/185 62/69/186
f 58/63/187 52/55/188 54/54/189 55/64/190
f 53/57/191 59/67/192 57/66/193 56/58/194
f 58/70/195 50/71/196 51/68/197 59/67/198
f 62/69/199 51/68/200 50/71/201 63/72/202
f 62/69/203 63/72/204 47/73/205
f 61/59/206 56/58/207 57/66/208 62/69/209
f 61/59/210 62/69/211 47/73/212
f 44/74/213 46/75/214 59/67/215 53/57/216
f 58/70/217 59/67/218 46/75/219 45/76/220
f 45/77/221 43/78/222 52/55/223 58/63/224
f 43/78/225 44/74/226 53/57/227 52/55/228
g default
v -1.248254 31.334818 15.908317
v -2.063307 28.952255 17.935919
v 1.786833 31.240965 17.018061
v 0.971760 28.858400 19.045681
v -4.036657 41.310734 29.087124
v -5.524176 38.694927 24.164114
v -6.308780 37.603546 26.217638
v 0.163698 39.471207 26.214024
v -0.383800 37.293015 27.527170
v -4.140653 38.339882 21.242945
v -5.604653 34.643742 24.934233
v -3.362272 40.674072 23.810081
v -0.826837 40.500252 24.625032
v -5.573254 36.459797 27.569359
v -2.362464 36.114128 28.453876
v 0.732168 38.770252 23.707420
v -0.403580 34.129868 26.421103
v -4.877108 40.997959 24.781742
v -5.930460 37.425423 27.360416
v -1.683330 37.305202 28.913706
v -0.556109 40.631622 26.088245
vt 0.591426 0.213388
vt 0.595775 0.204548
vt 0.615881 0.204113
vt 0.604614 0.215598
vt 0.620738 0.229726
vt 0.606810 0.234668
vt 0.602644 0.231449
vt 0.605002 0.226125
vt 0.602976 0.276402
vt 0.607798 0.272184
vt 0.618259 0.277986
vt 0.606574 0.282437
vt 0.583054 0.237020
vt 0.601943 0.293708
vt 0.591844 0.293204
vt 0.583272 0.270429
vt 0.608353 0.249643
vt 0.625256 0.253989
vt 0.609619 0.260300
vt 0.602201 0.253695
vt 0.620075 0.301687
vt 0.665449 0.230427
vt 0.667269 0.251927
vt 0.666981 0.273432
vt 0.665449 0.290096
vt 0.662509 0.213931
vn -0.610009 0.567393 -0.553131
vn -0.610009 0.567393 -0.553131
vn -0.610008 0.567393 -0.553131
vn -0.610009 0.567393 -0.553131
vn -0.919996 -0.313229 0.235575
vn -0.919996 -0.313229 0.235575
vn -0.919996 -0.313229 0.235575
vn -0.919996 -0.313229 0.235575
vn 0.773174 0.629854 -0.074068
vn 0.773174 0.629854 -0.074068
vn 0.773174 0.629854 -0.074068
vn 0.773174 0.629854 -0.074068
vn -0.914610 0.386542 0.118634
vn -0.913631 0.404115 0.044372
vn -0.913631 0.404115 0.044372
vn -0.914706 0.387720 0.113958
vn -0.914610 0.386542 0.118634
vn -0.914706 0.387720 0.113958
vn -0.913368 0.378168 0.150824
vn -0.911883 -0.059098 -0.406174
vn -0.911883 -0.059098 -0.406174
vn -0.911883 -0.059098 -0.406174
vn -0.911883 -0.059098 -0.406174
vn 0.113766 0.987880 -0.105595
vn 0.116251 0.985343 -0.124839
vn 0.116251 0.985343 -0.124839
vn 0.113458 0.988166 -0.103224
vn 0.113766 0.987880 -0.105595
vn 0.113458 0.988166 -0.103224
vn 0.112221 0.989249 -0.093772
vn 0.562460 -0.358263 0.745176
vn 0.562460 -0.358263 0.745176
vn 0.562460 -0.358263 0.745176
vn 0.562460 -0.358263 0.745176
vn 0.286894 0.654715 -0.699314
vn 0.286894 0.654715 -0.699314
vn 0.286894 0.654715 -0.699314
vn 0.286894 0.654715 -0.699314
vn -0.237394 -0.799007 0.552478
vn -0.237394 -0.799007 0.552478
vn -0.237394 -0.799007 0.552478
vn -0.237394 -0.799007 0.552478
vn 0.964820 -0.092932 0.245938
vn 0.964820 -0.092932 0.245939
vn 0.964820 -0.092932 0.245938
vn 0.964820 -0.092932 0.245938
vn 0.643983 0.346954 0.681842
vn 0.631120 0.334255 0.699972
vn 0.631120 0.334255 0.699972
vn 0.643618 0.346591 0.682371
vn 0.643983 0.346954 0.681842
vn 0.643618 0.346591 0.682371
vn 0.649390 0.352350 0.673900
vn -0.332058 -0.180801 0.925769
vn -0.313646 -0.063396 0.947421
vn -0.313646 -0.063396 0.947421
vn -0.332707 -0.185538 0.924598
vn -0.332058 -0.180801 0.925769
vn -0.332707 -0.185538 0.924598
vn -0.339488 -0.238850 0.909779
vn -0.229808 -0.810151 0.539300
vn -0.229808 -0.810151 0.539300
vn -0.229808 -0.810151 0.539300
vn -0.229808 -0.810151 0.539300
vn 0.962495 -0.096064 0.253724
vn 0.962495 -0.096064 0.253724
vn 0.962495 -0.096064 0.253724
vn 0.962495 -0.096064 0.253724
vn 0.287640 0.655658 -0.698123
vn 0.287640 0.655658 -0.698123
vn 0.287640 0.655658 -0.698123
vn 0.287640 0.655658 -0.698123
vn -0.906825 -0.053375 -0.418115
vn -0.906825 -0.053375 -0.418115
vn -0.906825 -0.053375 -0.418115
vn -0.906825 -0.053375 -0.418115
s off
g LPChristal4
usemtl initialShadingGroup
f 81/79/229 75/80/230 73/81/231 69/82/232
f 74/83/233 77/84/234 82/85/235 70/86/236
f 84/87/237 71/88/238 79/89/239 76/90/240
f 81/79/241 69/82/242 70/86/243 82/85/244
f 81/79/245 82/85/246 68/91/247
f 73/81/248 74/83/249 70/86/250 69/82/251
f 84/87/252 76/90/253 75/92/254 81/93/255
f 84/87/256 81/93/257 68/94/258
f 78/95/259 80/96/260 72/97/261 83/98/262
f 79/89/263 73/99/264 75/92/265 76/90/266
f 74/83/267 80/96/268 78/95/269 77/84/270
f 79/89/271 71/88/272 72/97/273 80/96/274
f 83/98/275 72/97/276 71/88/277 84/87/278
f 83/98/279 84/87/280 68/94/281
f 82/85/282 77/84/283 78/95/284 83/98/285
f 82/85/286 83/98/287 68/91/288
f 65/100/289 67/101/290 80/96/291 74/83/292
f 79/89/293 80/96/294 67/101/295 66/102/296
f 66/102/297 64/103/298 73/99/299 79/89/300
f 64/104/301 65/100/302 74/83/303 73/81/304
g default
v 3.061612 32.207455 18.846844
v -0.331226 29.751366 21.051441
v 6.345727 29.381411 20.752628
v 2.952888 26.925322 22.957205
v 4.688728 44.439674 40.059879
v 1.962253 43.315060 32.144012
v -0.351593 42.366169 34.724224
v 8.897366 39.156590 35.919720
v 6.160648 36.826519 37.180496
v 4.023657 42.170280 28.008312
v -1.608430 38.445557 32.190365
v 6.236660 43.909031 32.388088
v 8.929411 41.451485 33.794304
v -0.724740 40.184444 36.450748
v 2.618474 36.945084 37.987041
v 9.605292 38.221943 32.199657
v 3.831628 33.244843 34.768578
v 4.458450 45.419964 33.700451
v -0.317184 41.664871 36.361607
v 4.287374 37.723423 39.031807
v 9.010232 41.160690 35.960453
vt 0.606509 0.146543
vt 0.620100 0.144710
vt 0.641025 0.160341
vt 0.614334 0.164182
vt 0.648123 0.052310
vt 0.628254 0.059104
vt 0.622337 0.054330
vt 0.625512 0.046149
vt 0.622149 0.119916
vt 0.629518 0.114003
vt 0.645137 0.122925
vt 0.627731 0.128519
vt 0.605451 0.029744
vt 0.626045 0.030264
vt 0.593759 0.063411
vt 0.648036 0.017138
vt 0.593267 0.112530
vt 0.630377 0.081480
vt 0.655242 0.087996
vt 0.632353 0.097036
vt 0.621435 0.087665
vt 0.716242 0.059330
vt 0.716542 0.090871
vt 0.713722 0.122437
vt 0.709136 0.146543
vt 0.714224 0.034974
vn -0.092697 0.867731 -0.488314
vn -0.092697 0.867731 -0.488314
vn -0.092697 0.867731 -0.488314
vn -0.092697 0.867731 -0.488314
vn -0.962762 0.248650 0.106127
vn -0.962762 0.248650 0.106127
vn -0.962762 0.248650 0.106127
vn -0.962762 0.248650 0.106127
vn 0.992317 0.076323 0.097371
vn 0.992317 0.076323 0.097371
vn 0.992317 0.076323 0.097371
vn 0.992317 0.076323 0.097371
vn -0.551056 0.826395 0.115797
vn -0.528400 0.847742 0.046114
vn -0.528400 0.847742 0.046114
vn -0.549718 0.827888 0.111410
vn -0.551056 0.826395 0.115797
vn -0.549718 0.827888 0.111410
vn -0.559937 0.815571 0.145994
vn -0.710520 0.516455 -0.477950
vn -0.710520 0.516455 -0.477950
vn -0.710520 0.516455 -0.477950
vn -0.710520 0.516455 -0.477950
vn 0.658126 0.748640 0.080052
vn 0.661883 0.747129 0.060907
vn 0.661883 0.747129 0.060907
vn 0.657646 0.748807 0.082406
vn 0.658126 0.748640 0.080052
vn 0.657646 0.748807 0.082406
vn 0.655697 0.749425 0.091779
vn 0.138618 -0.690187 0.710230
vn 0.138618 -0.690187 0.710230
vn 0.138618 -0.690187 0.710230
vn 0.138618 -0.690187 0.710230
vn 0.711320 0.439508 -0.548504
vn 0.711320 0.439508 -0.548504
vn 0.711320 0.439509 -0.548504
vn 0.711320 0.439509 -0.548504
vn -0.727053 -0.570106 0.382588
vn -0.727053 -0.570106 0.382588
vn -0.727053 -0.570106 0.382588
vn -0.727053 -0.570106 0.382588
vn 0.695483 -0.653938 0.297773
vn 0.695483 -0.653938 0.297773
vn 0.695483 -0.653938 0.297773
vn 0.695483 -0.653938 0.297773
vn 0.606721 -0.157171 0.779222
vn 0.586225 -0.161978 0.793791
vn 0.586225 -0.161978 0.793791
vn 0.606137 -0.157311 0.779648
vn 0.606721 -0.157171 0.779222
vn 0.606137 -0.157311 0.779648
vn 0.615422 -0.155069 0.772793
vn -0.522150 -0.051628 0.851290
vn -0.445518 0.031030 0.894735
vn -0.445518 0.031030 0.894735
vn -0.525116 -0.054986 0.849252
vn -0.522150 -0.051628 0.851290
vn -0.525116 -0.054986 0.849252
vn -0.557812 -0.092913 0.824750
vn -0.724897 -0.582161 0.368255
vn -0.724897 -0.582161 0.368255
vn -0.724897 -0.582161 0.368255
vn -0.724897 -0.582161 0.368255
vn 0.690579 -0.655949 0.304682
vn 0.690579 -0.655949 0.304682
vn 0.690579 -0.655949 0.304682
vn 0.690579 -0.655949 0.304682
vn 0.712257 0.439726 -0.547112
vn 0.712257 0.439726 -0.547112
vn 0.712257 0.439726 -0.547112
vn 0.712257 0.439726 -0.547112
vn -0.701271 0.519433 -0.488270
vn -0.701272 0.519433 -0.488270
vn -0.701271 0.519433 -0.488270
vn -0.701272 0.519433 -0.488270
s off
g LPChristal5
usemtl initialShadingGroup
f 102/105/305 96/106/306 94/107/307 90/108/308
f 95/109/309 98/110/310 103/111/311 91/112/312
f 105/113/313 92/114/314 100/115/315 97/116/316
f 102/117/317 90/118/318 91/112/319 103/111/320
f 102/117/321 103/111/322 89/119/323
f 94/120/324 95/109/325 91/112/326 90/118/327
f 105/113/328 97/116/329 96/106/330 102/105/331
f 105/113/332 102/105/333 89/121/334
f 99/122/335 101/123/336 93/124/337 104/125/338
f 100/115/339 94/107/340 96/106/341 97/116/342
f 95/109/343 101/123/344 99/122/345 98/110/346
f 100/115/347 92/114/348 93/124/349 101/123/350
f 104/125/351 93/124/352 92/114/353 105/113/354
f 104/125/355 105/113/356 89/121/357
f 103/111/358 98/110/359 99/122/360 104/125/361
f 103/111/362 104/125/363 89/119/364
f 86/126/365 88/127/366 101/123/367 95/109/368
f 100/115/369 101/123/370 88/127/371 87/128/372
f 87/128/373 85/129/374 94/107/375 100/115/376
f 85/130/377 86/126/378 95/109/379 94/120/380
g default
v -5.487506 35.485367 5.348737
v 5.361899 35.485367 5.348737
v -5.487506 35.485367 -5.500667
v 5.361899 35.485367 -5.500667
v -0.062803 124.826385 -0.075965
v -2.696496 98.682693 10.026579
v 4.988468 103.432976 10.026579
v -5.114075 102.030029 -10.178508
v 3.499778 99.747040 -10.178508
v -9.137090 84.656998 8.998321
v 9.011482 86.962090 8.998321
v -10.165347 101.811172 3.816282
v -10.165347 101.042755 -5.127237
v 10.039740 103.432976 6.040802
v 10.039740 101.448875 -5.127237
v -9.137090 89.336395 -9.150251
v 9.011482 84.118729 -9.150251
v -7.639711 108.556313 7.500943
v 7.514104 106.606567 7.500943
v 7.487313 106.648285 -7.680432
v -7.639711 106.682175 -7.652873
vt 0.751720 0.283168
vt 0.768612 0.315095
vt 0.742074 0.396660
vt 0.718165 0.321389
vt 0.997578 0.359822
vt 0.963020 0.287273
vt 0.965833 0.264417
vt 0.989395 0.270300
vt 0.824472 0.287639
vt 0.840569 0.314916
vt 0.825957 0.380313
vt 0.809347 0.319534
vt 0.687235 0.288204
vt 0.683917 0.262711
vt 0.770600 0.193359
vt 0.658083 0.370535
vt 0.917153 0.310995
vt 0.910498 0.398983
vt 0.879861 0.323435
vt 0.897348 0.289095
vt 0.880766 0.193359
vt 0.954358 0.625762
vt 0.894250 0.628846
vt 0.831182 0.631687
vt 0.768302 0.630929
vt 0.708361 0.630936
vn -0.614932 0.087629 0.783696
vn -0.614932 0.087629 0.783696
vn -0.614932 0.087629 0.783696
vn -0.614932 0.087629 0.783696
vn 0.615928 0.106447 0.780578
vn 0.615928 0.106447 0.780578
vn 0.615928 0.106447 0.780578
vn 0.615928 0.106447 0.780578
vn -0.713638 0.121166 -0.689956
vn -0.713638 0.121166 -0.689956
vn -0.713638 0.121166 -0.689956
vn -0.713638 0.121166 -0.689956
vn 0.022621 0.387505 0.921590
vn -0.043372 0.353701 0.934352
vn -0.043372 0.353701 0.934352
vn 0.016591 0.384505 0.922974
vn 0.022621 0.387505 0.921590
vn 0.016591 0.384505 0.922974
vn 0.051686 0.401718 0.914304
vn 0.018777 -0.068751 0.997457
vn 0.018777 -0.068751 0.997457
vn 0.018777 -0.068751 0.997457
vn 0.018777 -0.068751 0.997457
vn -0.918014 0.393804 -0.046570
vn -0.923764 0.380681 -0.041746
vn -0.923764 0.380681 -0.041746
vn -0.917041 0.395969 -0.047369
vn -0.918014 0.393804 -0.046570
vn -0.917041 0.395969 -0.047369
vn -0.914067 0.402496 -0.049778
vn 0.593504 0.092312 -0.799520
vn 0.593504 0.092312 -0.799520
vn 0.593504 0.092312 -0.799520
vn 0.593504 0.092312 -0.799520
vn -0.997388 -0.071485 -0.010320
vn -0.997388 -0.071485 -0.010320
vn -0.997388 -0.071485 -0.010320
vn -0.997388 -0.071485 -0.010320
vn 0.998085 -0.061042 0.010052
vn 0.998085 -0.061042 0.010052
vn 0.998085 -0.061042 0.010052
vn 0.998085 -0.061042 0.010052
vn -0.020595 -0.073483 -0.997084
vn -0.020595 -0.073483 -0.997084
vn -0.020595 -0.073483 -0.997084
vn -0.020595 -0.073483 -0.997084
vn 0.011138 0.388468 -0.921395
vn 0.037433 0.394493 -0.918136
vn 0.037433 0.394493 -0.918136
vn 0.011466 0.388545 -0.921358
vn 0.011138 0.388468 -0.921395
vn 0.011466 0.388545 -0.921358
vn -0.000817 0.385634 -0.922651
vn 0.905092 0.425035 -0.012367
vn 0.856633 0.514466 -0.038796
vn 0.856633 0.514466 -0.038796
vn 0.905984 0.423146 -0.011822
vn 0.905092 0.425035 -0.012367
vn 0.905984 0.423146 -0.011822
vn 0.923426 0.383777 -0.000575
vn 0.997327 -0.072716 0.007130
vn 0.997327 -0.072716 0.007130
vn 0.997327 -0.072716 0.007130
vn 0.997327 -0.072716 0.007130
vn -0.012782 -0.071036 -0.997392
vn -0.012782 -0.071036 -0.997392
vn -0.012782 -0.071036 -0.997392
vn -0.012782 -0.071036 -0.997392
vn -0.997435 -0.070668 -0.011404
vn -0.997435 -0.070668 -0.011404
vn -0.997435 -0.070668 -0.011404
vn -0.997435 -0.070668 -0.011404
vn 0.005750 -0.072330 0.997364
vn 0.005750 -0.072330 0.997364
vn 0.005750 -0.072330 0.997364
vn 0.005750 -0.072330 0.997364
s off
g LPChristal6
usemtl initialShadingGroup
f 123/131/381 117/132/382 115/133/383 111/134/384
f 116/135/385 119/136/386 124/137/387 112/138/388
f 126/139/389 113/140/390 121/141/391 118/142/392
f 123/131/393 111/134/394 112/143/395 124/144/396
f 123/131/397 124/144/398 110/145/399
f 115/133/400 116/146/401 112/143/402 111/134/403
f 126/139/404 118/142/405 117/132/406 123/131/407
f 126/139/408 123/131/409 110/145/410
f 120/147/411 122/148/412 114/149/413 125/150/414
f 121/141/415 115/133/416 117/132/417 118/142/418
f 116/135/419 122/148/420 120/147/421 119/136/422
f 121/141/423 113/140/424 114/149/425 122/148/426
f 125/150/427 114/149/428 113/140/429 126/139/430
f 125/150/431 126/139/432 110/151/433
f 124/137/434 119/136/435 120/147/436 125/150/437
f 124/137/438 125/150/439 110/151/440
f 107/152/441 109/153/442 122/148/443 116/135/444
f 121/141/445 122/148/446 109/153/447 108/154/448
f 108/154/449 106/155/450 115/133/451 121/141/452
f 106/155/453 107/156/454 116/146/455 115/133/456
g default
v -2.179062 21.707720 -7.983844
v 1.335714 25.513611 -2.023100
v 4.896638 20.668068 -11.492255
v 8.411414 24.473959 -5.531512
v -1.438101 57.783600 -26.223200
v -7.547210 47.675720 -18.707129
v -5.299758 52.216171 -15.519937
v 4.676181 46.191334 -27.298452
v 7.583107 48.326466 -22.068529
v -8.248125 39.871449 -19.522243
v -2.486220 47.132912 -10.053511
v -6.076098 45.675457 -25.500444
v -0.204217 44.520050 -28.225119
v -1.063923 53.606155 -14.033610
v 6.320734 51.765518 -17.212761
v 3.349353 39.949459 -26.410540
v 9.494750 44.289696 -15.302753
v -8.004795 49.533779 -24.390942
v -2.996176 54.092476 -15.640521
v 6.893911 52.644512 -20.573553
v 1.973669 47.353897 -28.882936
vt 0.545286 0.499342
vt 0.533510 0.483800
vt 0.553636 0.447193
vt 0.568401 0.485553
vt 0.614214 0.477063
vt 0.605582 0.518719
vt 0.592402 0.519973
vt 0.589061 0.504744
vt 0.492839 0.498036
vt 0.481780 0.484262
vt 0.492723 0.454724
vt 0.504016 0.481893
vt 0.533673 0.545357
vt 0.425105 0.489739
vt 0.433055 0.448841
vt 0.452725 0.481216
vt 0.439213 0.497491
vt 0.373597 0.471590
vt 0.392711 0.510013
vt 0.454644 0.545357
vt 0.395385 0.523802
vt 0.399147 0.347221
vt 0.445794 0.344971
vt 0.494817 0.343325
vt 0.544607 0.345906
vt 0.591060 0.349948
vn -0.978991 -0.071555 -0.190934
vn -0.978991 -0.071555 -0.190934
vn -0.978991 -0.071555 -0.190934
vn -0.978991 -0.071555 -0.190934
vn -0.431183 0.545410 0.718756
vn -0.431183 0.545410 0.718756
vn -0.431183 0.545410 0.718756
vn -0.431183 0.545410 0.718756
vn 0.265492 -0.260614 -0.928221
vn 0.265492 -0.260614 -0.928221
vn 0.265492 -0.260614 -0.928221
vn 0.265492 -0.260614 -0.928221
vn -0.786951 0.608485 0.102241
vn -0.831869 0.547955 0.087973
vn -0.831869 0.547955 0.087973
vn -0.789942 0.604748 0.101353
vn -0.786951 0.608485 0.102241
vn -0.789942 0.604748 0.101353
vn -0.765946 0.633723 0.108266
vn -0.861328 0.041554 0.506347
vn -0.861328 0.041554 0.506347
vn -0.861329 0.041554 0.506346
vn -0.861329 0.041554 0.506346
vn -0.393002 0.094957 -0.914622
vn -0.399772 0.076536 -0.913414
vn -0.399772 0.076536 -0.913414
vn -0.392165 0.097202 -0.914745
vn -0.393002 0.094957 -0.914622
vn -0.392165 0.097202 -0.914745
vn -0.388786 0.106207 -0.915186
vn 0.949727 0.312005 0.025930
vn 0.949727 0.312005 0.025930
vn 0.949727 0.312005 0.025930
vn 0.949727 0.312005 0.025930
vn -0.419846 -0.580167 -0.697951
vn -0.419846 -0.580167 -0.697951
vn -0.419846 -0.580167 -0.697951
vn -0.419846 -0.580167 -0.697951
vn 0.445271 0.395188 0.803468
vn 0.445271 0.395188 0.803468
vn 0.445271 0.395188 0.803468
vn 0.445271 0.395188 0.803468
vn 0.886085 -0.243344 -0.394509
vn 0.886085 -0.243344 -0.394509
vn 0.886085 -0.243344 -0.394509
vn 0.886085 -0.243344 -0.394509
vn 0.670558 0.389500 -0.631381
vn 0.675464 0.407978 -0.614249
vn 0.675464 0.407978 -0.614249
vn 0.670709 0.390049 -0.630881
vn 0.670558 0.389500 -0.631381
vn 0.670709 0.390049 -0.630881
vn 0.668313 0.381477 -0.638618
vn 0.293989 0.908005 0.298492
vn 0.267583 0.945294 0.186598
vn 0.267583 0.945294 0.186598
vn 0.295000 0.906155 0.303080
vn 0.293989 0.908005 0.298492
vn 0.295000 0.906155 0.303080
vn 0.305701 0.884121 0.353379
vn 0.449079 0.377588 0.809787
vn 0.449079 0.377588 0.809787
vn 0.449079 0.377589 0.809787
vn 0.449079 0.377589 0.809787
vn 0.889660 -0.236216 -0.390778
vn 0.889660 -0.236216 -0.390778
vn 0.889660 -0.236216 -0.390778
vn 0.889660 -0.236216 -0.390778
vn -0.419105 -0.579239 -0.699166
vn -0.419105 -0.579239 -0.699166
vn -0.419105 -0.579239 -0.699166
vn -0.419105 -0.579239 -0.699166
vn -0.866044 0.030161 0.499057
vn -0.866044 0.030161 0.499057
vn -0.866044 0.030161 0.499057
vn -0.866044 0.030161 0.499057
s off
g LPChristal7
usemtl initialShadingGroup
f 144/157/457 138/158/458 136/159/459 132/160/460
f 137/161/461 140/162/462 145/163/463 133/164/464
f 147/165/465 134/166/466 142/167/467 139/168/468
f 144/157/469 132/160/470 133/164/471 145/163/472
f 144/157/473 145/163/474 131/169/475
f 136/159/476 137/161/477 133/164/478 132/160/479
f 147/165/480 139/168/481 138/158/482 144/157/483
f 147/165/484 144/157/485 131/169/486
f 141/170/487 143/171/488 135/172/489 146/173/490
f 142/167/491 136/159/492 138/158/493 139/168/494
f 137/174/495 143/171/496 141/170/497 140/175/498
f 142/167/499 134/166/500 135/172/501 143/171/502
f 146/173/503 135/172/504 134/166/505 147/165/506
f 146/173/507 147/165/508 131/176/509
f 145/177/510 140/175/511 141/170/512 146/173/513
f 145/177/514 146/173/515 131/176/516
f 128/178/517 130/179/518 143/171/519 137/174/520
f 142/167/521 143/171/522 130/179/523 129/180/524
f 129/180/525 127/181/526 136/159/527 142/167/528
f 127/181/529 128/182/530 137/161/531 136/159/532
g default
v -0.866821 20.353352 -10.403294
v -7.232271 16.496445 -6.755426
v 1.645318 22.137564 -4.133210
v -4.720133 18.280634 -0.485343
v -36.286015 72.871323 -7.264655
v -27.279152 56.474716 -13.455958
v -33.568794 56.590229 -10.968854
v -22.437187 62.663433 -2.660097
v -26.635157 58.232719 0.282632
v -18.004292 50.525894 -14.741426
v -29.516382 45.455914 -8.686346
v -22.631964 62.026466 -12.441865
v -20.273062 63.036640 -7.257583
v -35.609528 55.449993 -6.967014
v -32.279812 56.097240 -0.472371
v -15.556304 56.315460 -4.348354
v -24.248207 46.736042 1.859983
v -27.495590 64.565964 -13.859555
v -35.655533 58.010101 -8.724715
v -32.140270 60.541229 0.039040
v -23.284203 65.934601 -5.063695
vt 0.080832 0.391165
vt 0.098911 0.373104
vt 0.160793 0.382868
vt 0.115053 0.407322
vt 0.160965 0.447244
vt 0.102242 0.454582
vt 0.087555 0.445752
vt 0.101851 0.434714
vt 0.064670 0.543509
vt 0.086398 0.541213
vt 0.124533 0.566555
vt 0.078026 0.563833
vt 0.018438 0.411172
vt 0.065973 0.347573
vt 0.090956 0.347139
vt 0.105418 0.486474
vt 0.163956 0.502616
vt 0.104122 0.514522
vt 0.085920 0.493835
vt 0.132448 0.329102
vt 0.018438 0.478264
vt 0.328877 0.448278
vt 0.326624 0.489650
vt 0.323599 0.536468
vt 0.326834 0.359990
vt 0.327784 0.399138
vn 0.078436 0.115222 -0.990238
vn 0.078436 0.115222 -0.990238
vn 0.078436 0.115222 -0.990238
vn 0.078436 0.115222 -0.990238
vn -0.775361 -0.380701 -0.503867
vn -0.775361 -0.380701 -0.503868
vn -0.775361 -0.380701 -0.503867
vn -0.775361 -0.380701 -0.503868
vn 0.706719 0.596107 0.381058
vn 0.706719 0.596106 0.381058
vn 0.706719 0.596107 0.381058
vn 0.706719 0.596107 0.381058
vn -0.539915 0.055465 -0.839890
vn -0.483916 0.051866 -0.873576
vn -0.483916 0.051866 -0.873576
vn -0.535526 0.055187 -0.842714
vn -0.539915 0.055465 -0.839890
vn -0.535526 0.055187 -0.842714
vn -0.564132 0.056993 -0.823715
vn -0.337801 -0.315291 -0.886838
vn -0.337801 -0.315291 -0.886838
vn -0.337801 -0.315291 -0.886838
vn -0.337801 -0.315291 -0.886838
vn 0.492936 0.791220 -0.361919
vn 0.503085 0.781321 -0.369383
vn 0.503085 0.781321 -0.369383
vn 0.491170 0.792910 -0.360620
vn 0.492936 0.791220 -0.361919
vn 0.491170 0.792910 -0.360620
vn 0.486032 0.797770 -0.356841
vn -0.149154 0.045025 0.987788
vn -0.149154 0.045025 0.987788
vn -0.149154 0.045025 0.987788
vn -0.149154 0.045025 0.987788
vn 0.810930 0.401620 -0.425552
vn 0.810930 0.401620 -0.425552
vn 0.810930 0.401620 -0.425551
vn 0.810930 0.401620 -0.425552
vn -0.735600 -0.523184 0.430315
vn -0.735600 -0.523184 0.430315
vn -0.735600 -0.523184 0.430315
vn -0.735600 -0.523184 0.430315
vn 0.407536 0.206130 0.889621
vn 0.407536 0.206130 0.889621
vn 0.407536 0.206130 0.889621
vn 0.407536 0.206130 0.889621
vn 0.138526 0.537689 0.831686
vn 0.117154 0.531409 0.838975
vn 0.117154 0.531409 0.838975
vn 0.138253 0.537610 0.831782
vn 0.138526 0.537689 0.831686
vn 0.138253 0.537610 0.831782
vn 0.148114 0.540417 0.828258
vn -0.919371 -0.027815 0.392406
vn -0.915592 0.082263 0.393604
vn -0.915592 0.082263 0.393604
vn -0.919333 -0.030047 0.392332
vn -0.919371 -0.027815 0.392406
vn -0.919333 -0.030047 0.392332
vn -0.917434 -0.077268 0.390313
vn -0.727004 -0.532567 0.433402
vn -0.727004 -0.532567 0.433402
vn -0.727004 -0.532567 0.433403
vn -0.727004 -0.532567 0.433402
vn 0.401378 0.205017 0.892672
vn 0.401378 0.205017 0.892672
vn 0.401378 0.205017 0.892672
vn 0.401378 0.205017 0.892672
vn 0.810964 0.402719 -0.424446
vn 0.810964 0.402719 -0.424446
vn 0.810964 0.402719 -0.424446
vn 0.810965 0.402719 -0.424445
vn -0.327602 -0.312917 -0.891493
vn -0.327602 -0.312917 -0.891493
vn -0.327602 -0.312917 -0.891493
vn -0.327602 -0.312917 -0.891493
s off
g LPChristal8
usemtl initialShadingGroup
f 165/183/533 159/184/534 157/185/535 153/186/536
f 158/187/537 161/188/538 166/189/539 154/190/540
f 168/191/541 155/192/542 163/193/543 160/194/544
f 165/183/545 153/186/546 154/190/547 166/189/548
f 165/183/549 166/189/550 152/195/551
f 157/185/552 158/187/553 154/190/554 153/186/555
f 168/196/556 160/197/557 159/184/558 165/183/559
f 168/196/560 165/183/561 152/195/562
f 162/198/563 164/199/564 156/200/565 167/201/566
f 163/202/567 157/185/568 159/184/569 160/197/570
f 158/187/571 164/199/572 162/198/573 161/188/574
f 163/193/575 155/192/576 156/200/577 164/199/578
f 167/201/579 156/200/580 155/192/581 168/191/582
f 167/201/583 168/191/584 152/203/585
f 166/189/586 161/188/587 162/198/588 167/201/589
f 166/189/590 167/201/591 152/203/592
f 149/204/593 151/205/594 164/199/595 158/187/596
f 163/193/597 164/199/598 151/205/599 150/206/600
f 150/207/601 148/208/602 157/185/603 163/202/604
f 148/208/605 149/204/606 158/187/607 157/185/608
g default
v 2.755060 33.843472 -8.054533
v 2.441498 35.799587 -4.096720
v 6.680121 32.150589 -6.906863
v 6.366558 34.106705 -2.949050
v 13.927969 50.619675 -12.986068
v 7.608141 46.850494 -12.825358
v 7.884102 49.121063 -10.419861
v 15.338666 43.885563 -11.850402
v 14.850351 45.013268 -8.516865
v 6.695740 42.915798 -13.891135
v 6.412889 46.617348 -7.463715
v 10.398766 45.117706 -15.155105
v 13.553729 43.579067 -14.144688
v 9.180056 49.409855 -8.155578
v 13.012355 47.297615 -6.808000
v 13.752062 40.955784 -12.363367
v 12.680487 43.255829 -5.305772
v 9.699953 47.404663 -15.188584
v 9.057552 49.773586 -9.497216
v 14.554953 47.407711 -7.904611
v 14.985724 44.690994 -13.428621
vt 0.318667 0.125769
vt 0.326672 0.119067
vt 0.344754 0.129588
vt 0.324722 0.138883
vt 0.326902 0.028764
vt 0.313026 0.041821
vt 0.305590 0.041451
vt 0.304307 0.033454
vt 0.319564 0.096014
vt 0.327048 0.089986
vt 0.341977 0.096068
vt 0.327869 0.102299
vt 0.313640 0.150084
vt 0.304675 0.149496
vt 0.294469 0.117206
vt 0.332567 0.162176
vt 0.324117 0.059456
vt 0.345738 0.062343
vt 0.328647 0.074129
vt 0.319964 0.066923
vt 0.294469 0.074109
vt 0.393807 0.039771
vt 0.396949 0.066150
vt 0.398852 0.094230
vt 0.398052 0.122137
vt 0.396809 0.148348
vn -0.575594 0.153042 -0.803287
vn -0.575594 0.153042 -0.803287
vn -0.575594 0.153042 -0.803287
vn -0.575594 0.153042 -0.803287
vn -0.641721 0.715546 0.276022
vn -0.641721 0.715546 0.276022
vn -0.641721 0.715546 0.276022
vn -0.641721 0.715546 0.276022
vn 0.748969 -0.398373 -0.529476
vn 0.748969 -0.398373 -0.529476
vn 0.748969 -0.398373 -0.529476
vn 0.748969 -0.398373 -0.529476
vn -0.438567 0.800480 -0.408523
vn -0.477949 0.752633 -0.452889
vn -0.477949 0.752633 -0.452889
vn -0.441112 0.797615 -0.411376
vn -0.438567 0.800480 -0.408523
vn -0.441112 0.797615 -0.411376
vn -0.420808 0.819669 -0.388669
vn -0.936918 0.289233 -0.196288
vn -0.936918 0.289233 -0.196288
vn -0.936918 0.289233 -0.196288
vn -0.936918 0.289233 -0.196288
vn 0.368942 0.125333 -0.920963
vn 0.359020 0.108719 -0.926976
vn 0.359020 0.108719 -0.926976
vn 0.370093 0.127274 -0.920235
vn 0.368942 0.125333 -0.920963
vn 0.370093 0.127274 -0.920235
vn 0.374861 0.135342 -0.917149
vn 0.735157 0.088765 0.672060
vn 0.735157 0.088765 0.672060
vn 0.735157 0.088765 0.672060
vn 0.735157 0.088765 0.672060
vn 0.021698 -0.544817 -0.838274
vn 0.021698 -0.544817 -0.838274
vn 0.021698 -0.544817 -0.838274
vn 0.021698 -0.544817 -0.838274
vn -0.128633 0.355537 0.925768
vn -0.128633 0.355537 0.925768
vn -0.128633 0.355537 0.925768
vn -0.128633 0.355537 0.925768
vn 0.821316 -0.493545 0.286101
vn 0.821316 -0.493545 0.286101
vn 0.821316 -0.493545 0.286101
vn 0.821316 -0.493545 0.286101
vn 0.982887 0.184187 -0.002913
vn 0.979179 0.202537 0.013697
vn 0.979179 0.202537 0.013697
vn 0.982773 0.184802 -0.002358
vn 0.982887 0.184187 -0.002913
vn 0.982773 0.184802 -0.002358
vn 0.984277 0.176352 -0.009974
vn 0.248968 0.855884 0.453297
vn 0.312054 0.881994 0.353141
vn 0.312054 0.881994 0.353141
vn 0.245934 0.854358 0.457809
vn 0.248968 0.855884 0.453297
vn 0.245934 0.854358 0.457809
vn 0.214697 0.837329 0.502778
vn -0.135207 0.336766 0.931830
vn -0.135207 0.336766 0.931830
vn -0.135207 0.336766 0.931830
vn -0.135207 0.336766 0.931830
vn 0.823321 -0.486905 0.291660
vn 0.823321 -0.486905 0.291660
vn 0.823321 -0.486905 0.291660
vn 0.823321 -0.486905 0.291660
vn 0.023320 -0.544145 -0.838667
vn 0.023320 -0.544145 -0.838667
vn 0.023320 -0.544145 -0.838667
vn 0.023320 -0.544145 -0.838667
vn -0.938301 0.278186 -0.205435
vn -0.938301 0.278186 -0.205435
vn -0.938301 0.278186 -0.205435
vn -0.938301 0.278186 -0.205435
s off
g LPChristal9
usemtl initialShadingGroup
f 186/209/609 180/210/610 178/211/611 174/212/612
f 179/213/613 182/214/614 187/215/615 175/216/616
f 189/217/617 176/218/618 184/219/619 181/220/620
f 186/209/621 174/212/622 175/221/623 187/222/624
f 186/209/625 187/222/626 173/223/627
f 178/211/628 179/224/629 175/221/630 174/212/631
f 189/217/632 181/220/633 180/210/634 186/209/635
f 189/217/636 186/209/637 173/223/638
f 183/225/639 185/226/640 177/227/641 188/228/642
f 184/219/643 178/211/644 180/210/645 181/220/646
f 179/213/647 185/226/648 183/225/649 182/214/650
f 184/219/651 176/218/652 177/227/653 185/226/654
f 188/228/655 177/227/656 176/218/657 189/217/658
f 188/228/659 189/217/660 173/229/661
f 187/215/662 182/214/663 183/225/664 188/228/665
f 187/215/666 188/228/667 173/229/668
f 170/230/669 172/231/670 185/226/671 179/213/672
f 184/219/673 185/226/674 172/231/675 171/232/676
f 171/232/677 169/233/678 178/211/679 184/219/680
f 169/233/681 170/234/682 179/224/683 178/211/684
g default
v -8.975225 32.028561 2.380405
v -5.085867 33.030834 6.281906
v -6.153867 35.221630 -1.252429
v -2.264509 36.223904 2.649072
v -23.501165 62.046227 13.167901
v -21.839865 50.659489 12.486161
v -20.035671 52.853943 15.816141
v -18.122231 57.428761 5.250417
v -14.577348 57.511055 8.075775
v -21.074135 45.983952 8.153342
v -15.029498 48.380878 14.954516
v -23.528524 52.774940 8.093899
v -21.048996 55.166958 5.007612
v -17.188391 54.493626 16.297991
v -13.887062 57.160416 12.321874
v -17.291214 52.787609 2.634403
v -9.740938 52.833599 8.538572
v -24.931326 54.031757 11.040205
v -19.108685 54.822361 16.257095
v -15.178773 59.300922 11.169073
v -20.615517 57.905983 5.742593
vt 0.567547 0.599622
vt 0.577646 0.615164
vt 0.566770 0.649590
vt 0.554181 0.620381
vt 0.524976 0.642511
vt 0.521599 0.610558
vt 0.529455 0.604717
vt 0.536483 0.612641
vt 0.606217 0.606416
vt 0.616371 0.613869
vt 0.608592 0.638902
vt 0.598840 0.617170
vt 0.536806 0.565877
vt 0.598552 0.566819
vt 0.496028 0.604713
vt 0.480041 0.636165
vt 0.477007 0.599046
vt 0.494099 0.590696
vt 0.636932 0.613182
vt 0.649845 0.647663
vt 0.639908 0.593418
vt 0.524727 0.736945
vt 0.496454 0.732138
vt 0.624345 0.740085
vt 0.595712 0.740829
vt 0.560200 0.740085
vn -0.879047 -0.462619 0.115148
vn -0.879047 -0.462619 0.115148
vn -0.879047 -0.462619 0.115148
vn -0.879047 -0.462619 0.115148
vn -0.037691 -0.220943 0.974558
vn -0.037691 -0.220943 0.974558
vn -0.037691 -0.220943 0.974558
vn -0.037691 -0.220943 0.974558
vn -0.229158 0.392169 -0.890893
vn -0.229158 0.392170 -0.890893
vn -0.229158 0.392169 -0.890893
vn -0.229158 0.392169 -0.890893
vn -0.675117 -0.104651 0.730250
vn -0.708743 -0.157851 0.687580
vn -0.708743 -0.157851 0.687580
vn -0.677576 -0.108362 0.727426
vn -0.675117 -0.104651 0.730250
vn -0.677576 -0.108362 0.727426
vn -0.658998 -0.080925 0.747779
vn -0.442017 -0.637289 0.631255
vn -0.442017 -0.637289 0.631255
vn -0.442017 -0.637289 0.631255
vn -0.442017 -0.637289 0.631255
vn -0.834517 0.265497 -0.482796
vn -0.835032 0.249306 -0.490477
vn -0.835032 0.249306 -0.490477
vn -0.834426 0.267710 -0.481731
vn -0.834517 0.265497 -0.482796
vn -0.834426 0.267710 -0.481731
vn -0.834053 0.275696 -0.477857
vn 0.749939 0.658046 -0.067578
vn 0.749939 0.658046 -0.067578
vn 0.749939 0.658046 -0.067578
vn 0.749939 0.658046 -0.067578
vn -0.637762 -0.248049 -0.729199
vn -0.637762 -0.248049 -0.729199
vn -0.637762 -0.248049 -0.729199
vn -0.637762 -0.248049 -0.729199
vn 0.728684 0.107972 0.676286
vn 0.728684 0.107972 0.676286
vn 0.728684 0.107972 0.676286
vn 0.728684 0.107972 0.676286
vn 0.536959 0.485913 -0.689611
vn 0.536959 0.485913 -0.689611
vn 0.536959 0.485913 -0.689611
vn 0.536959 0.485913 -0.689611
vn 0.196883 0.890467 -0.410251
vn 0.208543 0.897876 -0.387723
vn 0.208543 0.897876 -0.387723
vn 0.197132 0.890630 -0.409777
vn 0.196883 0.890467 -0.410251
vn 0.197132 0.890630 -0.409777
vn 0.191704 0.887006 -0.420083
vn 0.323866 0.582634 0.745418
vn 0.241804 0.658889 0.712317
vn 0.241804 0.658889 0.712317
vn 0.326355 0.580127 0.746287
vn 0.323866 0.582634 0.745418
vn 0.326355 0.580127 0.746287
vn 0.361283 0.543647 0.757576
vn 0.737122 0.097068 0.668752
vn 0.737122 0.097068 0.668752
vn 0.737122 0.097068 0.668752
vn 0.737122 0.097068 0.668752
vn 0.540942 0.490141 -0.683479
vn 0.540942 0.490141 -0.683480
vn 0.540942 0.490141 -0.683479
vn 0.540942 0.490141 -0.683479
vn -0.637831 -0.246586 -0.729635
vn -0.637831 -0.246586 -0.729635
vn -0.637831 -0.246586 -0.729635
vn -0.637831 -0.246586 -0.729635
vn -0.448489 -0.643235 0.620570
vn -0.448489 -0.643235 0.620570
vn -0.448489 -0.643235 0.620570
vn -0.448489 -0.643235 0.620570
s off
g LPChristal10
usemtl initialShadingGroup
f 207/235/685 201/236/686 199/237/687 195/238/688
f 200/239/689 203/240/690 208/241/691 196/242/692
f 210/243/693 197/244/694 205/245/695 202/246/696
f 207/235/697 195/238/698 196/242/699 208/241/700
f 207/235/701 208/241/702 194/247/703
f 199/237/704 200/239/705 196/242/706 195/238/707
f 210/243/708 202/246/709 201/236/710 207/235/711
f 210/243/712 207/235/713 194/248/714
f 204/249/715 206/250/716 198/251/717 209/252/718
f 205/245/719 199/237/720 201/236/721 202/246/722
f 200/239/723 206/250/724 204/249/725 203/240/726
f 205/245/727 197/244/728 198/253/729 206/254/730
f 209/255/731 198/253/732 197/244/733 210/243/734
f 209/255/735 210/243/736 194/248/737
f 208/241/738 203/240/739 204/249/740 209/252/741
f 208/241/742 209/252/743 194/247/744
f 191/256/745 193/257/746 206/250/747 200/239/748
f 205/245/749 206/254/750 193/258/751 192/259/752
f 192/259/753 190/260/754 199/237/755 205/245/756
f 190/260/757 191/256/758 200/239/759 199/237/760
g default
v 1.393339 27.743605 -19.828321
v 2.545615 29.256601 -17.041351
v 4.052530 25.667109 -19.800497
v 5.204826 27.180084 -17.013529
v 11.306540 37.598251 -27.234535
v 6.207464 36.198322 -25.357868
v 7.449429 37.808971 -23.852407
v 11.203009 32.373863 -26.257275
v 11.913239 33.316067 -23.819372
v 4.518359 33.512035 -25.626009
v 6.652460 36.304459 -21.191479
v 7.216768 34.323112 -27.569132
v 9.339959 32.524208 -27.470388
v 8.962831 37.750538 -22.544632
v 11.522290 35.387959 -22.320255
v 9.386006 30.569448 -26.041101
v 10.845865 32.508350 -20.864437
v 7.186441 36.145832 -27.595238
v 8.621143 38.037876 -23.510233
v 12.343001 35.133251 -23.482311
v 10.732695 33.032852 -27.371485
vt 0.500736 0.268181
vt 0.506951 0.263204
vt 0.521197 0.271609
vt 0.505779 0.277901
vt 0.508108 0.297230
vt 0.491628 0.293493
vt 0.491410 0.287984
vt 0.497699 0.286688
vt 0.501229 0.245987
vt 0.506740 0.241272
vt 0.518279 0.245881
vt 0.507694 0.250682
vt 0.482153 0.263260
vt 0.504215 0.217103
vt 0.520396 0.220461
vt 0.507838 0.228819
vt 0.501343 0.223061
vt 0.510496 0.195518
vt 0.495479 0.203619
vt 0.482153 0.229802
vt 0.489739 0.204937
vt 0.559769 0.205586
vt 0.560938 0.225533
vt 0.561736 0.246713
vt 0.560555 0.268053
vt 0.558573 0.288104
vn -0.741837 0.304966 -0.597222
vn -0.741837 0.304966 -0.597222
vn -0.741837 0.304966 -0.597222
vn -0.741837 0.304966 -0.597222
vn -0.304320 0.868633 0.390981
vn -0.304320 0.868633 0.390981
vn -0.304320 0.868633 0.390981
vn -0.304320 0.868633 0.390981
vn 0.403951 -0.595740 -0.694203
vn 0.403951 -0.595740 -0.694203
vn 0.403951 -0.595740 -0.694203
vn 0.403951 -0.595740 -0.694203
vn -0.318302 0.889561 -0.327666
vn -0.381088 0.854522 -0.352937
vn -0.381088 0.854522 -0.352937
vn -0.322296 0.887515 -0.329307
vn -0.318302 0.889561 -0.327666
vn -0.322296 0.887515 -0.329307
vn -0.290671 0.903070 -0.316187
vn -0.838012 0.540370 0.075742
vn -0.838012 0.540369 0.075742
vn -0.838012 0.540369 0.075742
vn -0.838012 0.540369 0.075742
vn 0.071002 0.011848 -0.997406
vn 0.055645 -0.001329 -0.998450
vn 0.055645 -0.001329 -0.998450
vn 0.072797 0.013390 -0.997257
vn 0.071002 0.011848 -0.997406
vn 0.072797 0.013390 -0.997257
vn 0.080263 0.019804 -0.996577
vn 0.908499 -0.118520 0.400728
vn 0.908499 -0.118520 0.400728
vn 0.908499 -0.118520 0.400728
vn 0.908499 -0.118520 0.400728
vn -0.395354 -0.532999 -0.748069
vn -0.395354 -0.532999 -0.748069
vn -0.395354 -0.532999 -0.748069
vn -0.395354 -0.532999 -0.748069
vn 0.276300 0.381920 0.881927
vn 0.276300 0.381920 0.881927
vn 0.276300 0.381920 0.881927
vn 0.276300 0.381920 0.881927
vn 0.707849 -0.703421 0.064420
vn 0.707849 -0.703421 0.064420
vn 0.707849 -0.703421 0.064420
vn 0.707849 -0.703421 0.064420
vn 0.940886 -0.100033 -0.323616
vn 0.947743 -0.081300 -0.308502
vn 0.947743 -0.081300 -0.308502
vn 0.941125 -0.099408 -0.323114
vn 0.940886 -0.100033 -0.323616
vn 0.941125 -0.099408 -0.323114
vn 0.937793 -0.107977 -0.329979
vn 0.599370 0.753372 0.270529
vn 0.631262 0.760170 0.153784
vn 0.631262 0.760170 0.153784
vn 0.597666 0.752785 0.275881
vn 0.599370 0.753372 0.270529
vn 0.597666 0.752785 0.275881
vn 0.579296 0.745461 0.329704
vn 0.267311 0.365790 0.891483
vn 0.267311 0.365790 0.891483
vn 0.267311 0.365790 0.891483
vn 0.267311 0.365790 0.891483
vn 0.713225 -0.697587 0.068429
vn 0.713225 -0.697587 0.068429
vn 0.713225 -0.697587 0.068429
vn 0.713225 -0.697587 0.068429
vn -0.393830 -0.532814 -0.749004
vn -0.393830 -0.532814 -0.749004
vn -0.393830 -0.532814 -0.749004
vn -0.393830 -0.532814 -0.749004
vn -0.845150 0.530114 0.068566
vn -0.845150 0.530114 0.068566
vn -0.845150 0.530114 0.068566
vn -0.845150 0.530114 0.068566
s off
g LPChristal11
usemtl initialShadingGroup
f 228/261/761 222/262/762 220/263/763 216/264/764
f 221/265/765 224/266/766 229/267/767 217/268/768
f 231/269/769 218/270/770 226/271/771 223/272/772
f 228/261/773 216/264/774 217/268/775 229/267/776
f 228/261/777 229/267/778 215/273/779
f 220/263/780 221/265/781 217/268/782 216/264/783
f 231/269/784 223/272/785 222/262/786 228/261/787
f 231/269/788 228/261/789 215/273/790
f 225/274/791 227/275/792 219/276/793 230/277/794
f 226/271/795 220/263/796 222/262/797 223/272/798
f 221/278/799 227/275/800 225/274/801 224/279/802
f 226/271/803 218/270/804 219/276/805 227/275/806
f 230/277/807 219/276/808 218/270/809 231/269/810
f 230/277/811 231/269/812 215/280/813
f 229/281/814 224/279/815 225/274/816 230/277/817
f 229/281/818 230/277/819 215/280/820
f 212/282/821 214/283/822 227/275/823 221/278/824
f 226/271/825 227/275/826 214/283/827 213/284/828
f 213/284/829 211/285/830 220/263/831 226/271/832
f 211/285/833 212/286/834 221/265/835 220/263/836
g default
v -7.397773 22.738401 4.917912
v 0.879847 20.601593 10.570649
v -2.309668 25.577986 -1.459480
v 5.967952 23.441174 4.193256
v -2.633192 87.620438 31.757963
v -8.819080 66.611549 28.363955
v -3.057781 68.529083 33.814320
v -1.259791 74.793701 16.246780
v 5.361234 71.448174 20.039640
v -12.949606 58.018448 20.133352
v 0.847478 56.109020 30.290953
v -11.672180 71.967636 21.774611
v -7.461399 73.753372 16.283577
v 2.665350 68.577423 34.103252
v 7.945485 70.067307 26.934446
v -4.538834 66.148346 10.890212
v 9.419749 58.805271 18.757282
v -11.618091 75.377823 27.310158
v -0.014511 70.984985 34.611916
v 7.083819 74.993774 25.686901
v -4.471087 77.990295 17.831951
vt 0.900082 0.715037
vt 0.921666 0.734531
vt 0.912411 0.804921
vt 0.880714 0.753654
vt 0.832750 0.805016
vt 0.822615 0.739794
vt 0.833115 0.723056
vt 0.847036 0.739450
vt 0.954098 0.695563
vt 0.976066 0.706121
vt 0.979437 0.762879
vt 0.952216 0.725094
vt 0.876211 0.644688
vt 0.782709 0.742604
vt 0.764820 0.805899
vt 0.747621 0.738908
vt 0.773031 0.720734
vt 0.688143 0.766406
vt 0.714314 0.716044
vt 0.715377 0.689971
vt 0.794553 0.644688
vt 0.837514 0.990175
vt 0.785530 0.988565
vt 0.726907 0.986348
vt 0.948489 0.983777
vt 0.899388 0.986984
vn -0.935227 -0.071613 0.346731
vn -0.935227 -0.071613 0.346731
vn -0.935227 -0.071613 0.346731
vn -0.935227 -0.071613 0.346731
vn -0.046018 -0.281101 0.958574
vn -0.046018 -0.281101 0.958574
vn -0.046018 -0.281101 0.958574
vn -0.046018 -0.281101 0.958574
vn -0.089649 0.504060 -0.859003
vn -0.089649 0.504060 -0.859003
vn -0.089649 0.504060 -0.859003
vn -0.089649 0.504060 -0.859003
vn -0.537222 0.055291 0.841627
vn -0.588717 0.031255 0.807735
vn -0.588717 0.031255 0.807735
vn -0.540893 0.053621 0.839380
vn -0.537222 0.055291 0.841627
vn -0.540893 0.053621 0.839380
vn -0.513427 0.065964 0.855594
vn -0.572801 -0.395473 0.717984
vn -0.572801 -0.395473 0.717984
vn -0.572801 -0.395473 0.717984
vn -0.572801 -0.395473 0.717984
vn -0.697568 0.624840 -0.350676
vn -0.706499 0.611422 -0.356403
vn -0.706499 0.611422 -0.356403
vn -0.696134 0.626950 -0.349760
vn -0.697568 0.624840 -0.350676
vn -0.696134 0.626950 -0.349760
vn -0.691581 0.633568 -0.346853
vn 0.920465 0.258350 -0.293258
vn 0.920465 0.258350 -0.293258
vn 0.920465 0.258350 -0.293258
vn 0.920465 0.258350 -0.293258
vn -0.795053 0.132492 -0.591892
vn -0.795053 0.132492 -0.591892
vn -0.795053 0.132492 -0.591892
vn -0.795053 0.132492 -0.591892
vn 0.800419 -0.279509 0.530287
vn 0.800419 -0.279509 0.530287
vn 0.800419 -0.279509 0.530287
vn 0.800419 -0.279509 0.530287
vn 0.575297 0.262640 -0.774631
vn 0.575297 0.262640 -0.774631
vn 0.575297 0.262640 -0.774631
vn 0.575297 0.262640 -0.774631
vn 0.538124 0.662718 -0.520796
vn 0.554078 0.662736 -0.503765
vn 0.554078 0.662736 -0.503765
vn 0.538377 0.662721 -0.520530
vn 0.538124 0.662718 -0.520796
vn 0.538377 0.662721 -0.520530
vn 0.530944 0.662594 -0.528268
vn 0.697617 0.277115 0.660710
vn 0.663324 0.384963 0.641720
vn 0.663324 0.384963 0.641720
vn 0.698319 0.274513 0.661055
vn 0.697617 0.277115 0.660710
vn 0.698319 0.274513 0.661055
vn 0.710335 0.226168 0.666537
vn 0.801958 -0.291057 0.521679
vn 0.801958 -0.291057 0.521679
vn 0.801958 -0.291057 0.521679
vn 0.801958 -0.291057 0.521679
vn 0.580711 0.263648 -0.770237
vn 0.580711 0.263648 -0.770237
vn 0.580711 0.263648 -0.770237
vn 0.580711 0.263648 -0.770237
vn -0.794378 0.133832 -0.592497
vn -0.794378 0.133832 -0.592497
vn -0.794378 0.133832 -0.592497
vn -0.794378 0.133832 -0.592497
vn -0.581483 -0.396480 0.710409
vn -0.581483 -0.396480 0.710409
vn -0.581483 -0.396480 0.710410
vn -0.581483 -0.396480 0.710410
s off
g LPChristal12
usemtl initialShadingGroup
f 249/287/837 243/288/838 241/289/839 237/290/840
f 242/291/841 245/292/842 250/293/843 238/294/844
f 252/295/845 239/296/846 247/297/847 244/298/848
f 249/287/849 237/290/850 238/294/851 250/293/852
f 249/287/853 250/293/854 236/299/855
f 241/289/856 242/291/857 238/294/858 237/290/859
f 252/295/860 244/298/861 243/288/862 249/287/863
f 252/295/864 249/287/865 236/299/866
f 246/300/867 248/301/868 240/302/869 251/303/870
f 247/297/871 241/289/872 243/288/873 244/298/874
f 242/291/875 248/301/876 246/300/877 245/292/878
f 247/304/879 239/305/880 240/302/881 248/301/882
f 251/303/883 240/302/884 239/305/885 252/306/886
f 251/303/887 252/306/888 236/307/889
f 250/293/890 245/292/891 246/300/892 251/303/893
f 250/293/894 251/303/895 236/307/896
f 233/308/897 235/309/898 248/301/899 242/291/900
f 247/304/901 248/301/902 235/309/903 234/310/904
f 234/311/905 232/312/906 241/289/907 247/297/908
f 232/312/909 233/308/910 242/291/911 241/289/912
g default
v 13.845208 16.115940 10.268835
v 13.505905 13.903360 13.365932
v 15.692600 13.301614 8.460661
v 15.353295 11.089036 11.557757
v 25.973555 18.171202 15.423335
v 21.007263 19.991941 15.035438
v 21.371704 18.667641 17.469017
v 24.949459 15.415004 11.146907
v 24.389414 13.541570 13.490597
v 19.598122 20.321447 12.317489
v 19.323999 16.738176 17.614594
v 22.696613 20.064156 12.026294
v 24.121637 17.704927 10.496970
v 21.892408 16.603590 18.246691
v 23.541449 13.605156 16.285261
v 23.284115 15.853031 9.529066
v 22.052273 11.885075 14.446418
v 22.848961 20.849812 13.701840
v 22.126808 17.659710 17.929270
v 24.717970 13.729294 15.393593
v 25.190666 16.823116 11.081706
vt 0.292667 0.209219
vt 0.294205 0.200231
vt 0.310624 0.200114
vt 0.304266 0.212809
vt 0.319757 0.230231
vt 0.308700 0.235088
vt 0.304747 0.231265
vt 0.306671 0.225307
vt 0.304102 0.284659
vt 0.308413 0.279687
vt 0.316467 0.285939
vt 0.306625 0.291636
vt 0.285831 0.236029
vt 0.301175 0.304034
vt 0.290586 0.302937
vt 0.285525 0.277312
vt 0.309086 0.252912
vt 0.322170 0.258413
vt 0.309637 0.265278
vt 0.302921 0.257147
vt 0.317172 0.312938
vt 0.353925 0.229355
vt 0.356234 0.255330
vt 0.355902 0.281240
vt 0.353925 0.301162
vt 0.349148 0.209641
vn -0.137885 0.988993 -0.053675
vn -0.137885 0.988993 -0.053675
vn -0.137885 0.988993 -0.053675
vn -0.137885 0.988993 -0.053675
vn -0.203250 0.299904 0.932066
vn -0.203250 0.299904 0.932066
vn -0.203250 0.299904 0.932066
vn -0.203250 0.299904 0.932066
vn 0.629324 0.006942 -0.777112
vn 0.629324 0.006942 -0.777112
vn 0.629324 0.006942 -0.777112
vn 0.629324 0.006942 -0.777112
vn 0.278923 0.755881 0.592322
vn 0.232560 0.799252 0.554176
vn 0.232560 0.799252 0.554176
vn 0.275716 0.759063 0.589749
vn 0.278923 0.755881 0.592322
vn 0.275716 0.759063 0.589749
vn 0.297402 0.736993 0.606955
vn -0.621114 0.658354 0.425192
vn -0.621114 0.658354 0.425192
vn -0.621114 0.658354 0.425192
vn -0.621114 0.658354 0.425192
vn 0.704764 0.627373 -0.331226
vn 0.691740 0.633398 -0.346846
vn 0.691740 0.633398 -0.346846
vn 0.706103 0.626728 -0.329590
vn 0.704764 0.627373 -0.331226
vn 0.706103 0.626728 -0.329590
vn 0.712176 0.623747 -0.322095
vn 0.517028 -0.837692 0.175938
vn 0.517027 -0.837692 0.175938
vn 0.517028 -0.837692 0.175938
vn 0.517028 -0.837692 0.175938
vn -0.055757 0.503504 -0.862192
vn -0.055757 0.503504 -0.862192
vn -0.055757 0.503504 -0.862192
vn -0.055757 0.503504 -0.862192
vn -0.219601 -0.616445 0.756156
vn -0.219601 -0.616445 0.756156
vn -0.219601 -0.616445 0.756156
vn -0.219601 -0.616445 0.756156
vn 0.325485 -0.774349 -0.542627
vn 0.325485 -0.774349 -0.542627
vn 0.325485 -0.774349 -0.542627
vn 0.325485 -0.774349 -0.542627
vn 0.958942 -0.272157 -0.079760
vn 0.959329 -0.276390 -0.057417
vn 0.959329 -0.276390 -0.057417
vn 0.958972 -0.272365 -0.078682
vn 0.958942 -0.272157 -0.079760
vn 0.958972 -0.272365 -0.078682
vn 0.958639 -0.270382 -0.088906
vn 0.601577 -0.125229 0.788938
vn 0.678157 -0.060372 0.732433
vn 0.678157 -0.060372 0.732433
vn 0.596284 -0.129418 0.792273
vn 0.601577 -0.125229 0.788938
vn 0.596284 -0.129418 0.792273
vn 0.553661 -0.161971 0.816838
vn -0.241523 -0.625593 0.741822
vn -0.241523 -0.625593 0.741822
vn -0.241523 -0.625593 0.741822
vn -0.241523 -0.625593 0.741822
vn 0.330288 -0.777648 -0.534952
vn 0.330288 -0.777648 -0.534952
vn 0.330288 -0.777648 -0.534952
vn 0.330288 -0.777648 -0.534952
vn -0.053556 0.503560 -0.862299
vn -0.053556 0.503560 -0.862299
vn -0.053556 0.503560 -0.862299
vn -0.053556 0.503560 -0.862299
vn -0.626608 0.661977 0.411277
vn -0.626608 0.661977 0.411277
vn -0.626608 0.661977 0.411277
vn -0.626608 0.661977 0.411277
s off
g LPChristal13
usemtl initialShadingGroup
f 270/313/913 264/314/914 262/315/915 258/316/916
f 263/317/917 266/318/918 271/319/919 259/320/920
f 273/321/921 260/322/922 268/323/923 265/324/924
f 270/313/925 258/316/926 259/320/927 271/319/928
f 270/313/929 271/319/930 257/325/931
f 262/315/932 263/317/933 259/320/934 258/316/935
f 273/321/936 265/324/937 264/326/938 270/327/939
f 273/321/940 270/327/941 257/328/942
f 267/329/943 269/330/944 261/331/945 272/332/946
f 268/323/947 262/333/948 264/326/949 265/324/950
f 263/317/951 269/330/952 267/329/953 266/318/954
f 268/323/955 260/322/956 261/331/957 269/330/958
f 272/332/959 261/331/960 260/322/961 273/321/962
f 272/332/963 273/321/964 257/328/965
f 271/319/966 266/318/967 267/329/968 272/332/969
f 271/319/970 272/332/971 257/325/972
f 254/334/973 256/335/974 269/330/975 263/317/976
f 268/323/977 269/330/978 256/335/979 255/336/980
f 255/336/981 253/337/982 262/333/983 268/323/984
f 253/338/985 254/334/986 263/317/987 262/315/988
g default
v -4.879007 27.043924 -14.676285
v -0.757755 29.533657 -14.858090
v -3.386680 24.305508 -18.349228
v 0.734552 26.795242 -18.531033
v -11.446691 41.372162 -31.187820
v -11.093466 39.088440 -23.455860
v -8.672714 41.620441 -24.360060
v -9.583884 33.975342 -30.801966
v -6.072279 35.582733 -30.573627
v -11.926845 35.081993 -21.406462
v -5.274825 39.619652 -22.086845
v -13.404624 36.313087 -25.943834
v -12.093840 33.931416 -28.846115
v -6.205713 41.773598 -25.794056
v -4.461388 38.633785 -29.250961
v -9.921550 31.258242 -28.314337
v -2.480178 34.578949 -27.766697
v -13.659835 38.913849 -25.839840
v -7.698930 42.075943 -25.775486
v -5.625323 38.244736 -30.921318
v -11.378802 34.785809 -30.664045
vt 0.466362 0.121929
vt 0.475305 0.114817
vt 0.495879 0.126838
vt 0.473704 0.135834
vt 0.477250 0.163477
vt 0.453504 0.158154
vt 0.453136 0.150268
vt 0.462150 0.148392
vt 0.467071 0.090229
vt 0.474999 0.083495
vt 0.491656 0.090086
vt 0.476375 0.096940
vt 0.439654 0.114913
vt 0.471427 0.048979
vt 0.494740 0.053772
vt 0.476600 0.065719
vt 0.467252 0.057495
vt 0.480646 0.018107
vt 0.458974 0.029682
vt 0.439654 0.067106
vt 0.450755 0.031536
vt 0.551631 0.032615
vt 0.553263 0.061067
vt 0.554387 0.091273
vt 0.552720 0.121703
vt 0.549939 0.150302
vn -0.826064 0.224490 0.516936
vn -0.826064 0.224490 0.516936
vn -0.826064 0.224490 0.516936
vn -0.826064 0.224490 0.516936
vn 0.204931 0.871446 0.445630
vn 0.204931 0.871446 0.445630
vn 0.204931 0.871446 0.445630
vn 0.204931 0.871446 0.445630
vn -0.477888 -0.615125 -0.627093
vn -0.477888 -0.615124 -0.627093
vn -0.477888 -0.615124 -0.627093
vn -0.477888 -0.615124 -0.627093
vn -0.479058 0.847584 0.228266
vn -0.520601 0.807307 0.277903
vn -0.520601 0.807307 0.277903
vn -0.481744 0.845203 0.231417
vn -0.479058 0.847584 0.228266
vn -0.481744 0.845203 0.231417
vn -0.460266 0.863447 0.206431
vn -0.241482 0.496754 0.833620
vn -0.241482 0.496754 0.833620
vn -0.241482 0.496754 0.833620
vn -0.241482 0.496754 0.833620
vn -0.919523 -0.049579 -0.389896
vn -0.924373 -0.063569 -0.376156
vn -0.924373 -0.063569 -0.376156
vn -0.918928 -0.047933 -0.391501
vn -0.919523 -0.049579 -0.389896
vn -0.918928 -0.047933 -0.391501
vn -0.916408 -0.041107 -0.398129
vn 0.681818 -0.043425 -0.730232
vn 0.681818 -0.043425 -0.730232
vn 0.681818 -0.043425 -0.730232
vn 0.681818 -0.043425 -0.730232
vn -0.793475 -0.598510 0.110374
vn -0.793475 -0.598510 0.110374
vn -0.793475 -0.598510 0.110374
vn -0.793475 -0.598510 0.110374
vn 0.891673 0.450981 0.039186
vn 0.891673 0.450981 0.039186
vn 0.891673 0.450981 0.039186
vn 0.891673 0.450981 0.039186
vn 0.342917 -0.656334 -0.672037
vn 0.342917 -0.656334 -0.672037
vn 0.342917 -0.656334 -0.672037
vn 0.342917 -0.656334 -0.672037
vn 0.009505 -0.070745 -0.997449
vn 0.024635 -0.050751 -0.998407
vn 0.024635 -0.050751 -0.998407
vn 0.010004 -0.070088 -0.997491
vn 0.009505 -0.070745 -0.997449
vn 0.010004 -0.070088 -0.997491
vn 0.003064 -0.079242 -0.996851
vn 0.396209 0.800266 -0.450103
vn 0.296162 0.802124 -0.518541
vn 0.296162 0.802124 -0.518541
vn 0.400675 0.799898 -0.446792
vn 0.396209 0.800266 -0.450103
vn 0.400675 0.799898 -0.446792
vn 0.445788 0.794678 -0.412019
vn 0.898965 0.435144 0.050124
vn 0.898965 0.435144 0.050124
vn 0.898965 0.435144 0.050124
vn 0.898965 0.435144 0.050124
vn 0.348008 -0.649993 -0.675574
vn 0.348008 -0.649993 -0.675574
vn 0.348008 -0.649993 -0.675574
vn 0.348009 -0.649992 -0.675574
vn -0.793869 -0.598305 0.108643
vn -0.793869 -0.598305 0.108643
vn -0.793869 -0.598305 0.108643
vn -0.793869 -0.598305 0.108643
vn -0.249811 0.485741 0.837646
vn -0.249811 0.485741 0.837646
vn -0.249811 0.485741 0.837646
vn -0.249811 0.485741 0.837646
s off
g LPChristal14
usemtl initialShadingGroup
f 291/339/989 285/340/990 283/341/991 279/342/992
f 284/343/993 287/344/994 292/345/995 280/346/996
f 294/347/997 281/348/998 289/349/999 286/350/1000
f 291/339/1001 279/342/1002 280/346/1003 292/345/1004
f 291/339/1005 292/345/1006 278/351/1007
f 283/341/1008 284/343/1009 280/346/1010 279/342/1011
f 294/347/1012 286/350/1013 285/340/1014 291/339/1015
f 294/347/1016 291/339/1017 278/351/1018
f 288/352/1019 290/353/1020 282/354/1021 293/355/1022
f 289/349/1023 283/341/1024 285/340/1025 286/350/1026
f 284/356/1027 290/353/1028 288/352/1029 287/357/1030
f 289/349/1031 281/348/1032 282/354/1033 290/353/1034
f 293/355/1035 282/354/1036 281/348/1037 294/347/1038
f 293/355/1039 294/347/1040 278/358/1041
f 292/359/1042 287/357/1043 288/352/1044 293/355/1045
f 292/359/1046 293/355/1047 278/358/1048
f 275/360/1049 277/361/1050 290/353/1051 284/356/1052
f 289/349/1053 290/353/1054 277/361/1055 276/362/1056
f 276/362/1057 274/363/1058 283/341/1059 289/349/1060
f 274/363/1061 275/364/1062 284/343/1063 283/341/1064
g default
v 0.038949 33.423012 9.355505
v 5.874703 30.081839 14.189450
v 4.234010 31.021215 2.630968
v 10.069763 27.680040 7.464914
v 29.590160 73.406273 8.410210
v 17.087416 63.913319 13.498395
v 22.525616 63.825260 16.922428
v 24.518827 61.790527 -0.102012
v 28.525131 58.042709 3.735883
v 10.168789 58.941330 9.991480
v 20.563719 54.458000 18.077555
v 16.330473 66.339249 6.321468
v 19.577551 63.990768 0.778202
v 26.783777 61.387318 16.702599
v 30.557135 57.963245 9.780579
v 18.471243 57.168259 -1.257137
v 26.800203 49.076439 6.828939
v 18.116682 69.612633 9.730531
v 25.732264 64.010651 16.482323
v 31.599356 60.678101 7.060853
v 23.461372 65.358955 0.338095
vt 0.244056 0.282577
vt 0.229982 0.305607
vt 0.172919 0.306204
vt 0.207436 0.276111
vt 0.162962 0.239974
vt 0.205073 0.226725
vt 0.216660 0.235028
vt 0.209010 0.248683
vt 0.216078 0.120165
vt 0.202225 0.130848
vt 0.170556 0.115403
vt 0.204708 0.104551
vt 0.272534 0.221071
vt 0.216124 0.075040
vt 0.243847 0.075738
vt 0.272305 0.135297
vt 0.200557 0.188607
vt 0.150597 0.177373
vt 0.196641 0.161052
vt 0.217972 0.178048
vt 0.163458 0.054119
vt 0.029371 0.236176
vt 0.025535 0.182476
vt 0.026027 0.128747
vt 0.029371 0.086253
vt 0.035737 0.278302
vn -0.767494 0.578383 0.276451
vn -0.767495 0.578383 0.276451
vn -0.767494 0.578383 0.276451
vn -0.767494 0.578383 0.276451
vn 0.111092 0.104927 0.988256
vn 0.111092 0.104927 0.988256
vn 0.111092 0.104927 0.988256
vn 0.111092 0.104927 0.988256
vn -0.069772 0.231492 -0.970332
vn -0.069772 0.231492 -0.970332
vn -0.069772 0.231492 -0.970332
vn -0.069772 0.231492 -0.970332
vn -0.173899 0.677866 0.714323
vn -0.247485 0.675099 0.694977
vn -0.247485 0.675099 0.694977
vn -0.178892 0.677803 0.713149
vn -0.173899 0.677866 0.714323
vn -0.178892 0.677803 0.713149
vn -0.141090 0.677838 0.721547
vn -0.538048 0.198877 0.819117
vn -0.538048 0.198877 0.819117
vn -0.538048 0.198877 0.819117
vn -0.538048 0.198878 0.819117
vn -0.330257 0.776197 -0.537074
vn -0.346502 0.767898 -0.538766
vn -0.346502 0.767898 -0.538766
vn -0.328077 0.777287 -0.536834
vn -0.330257 0.776197 -0.537074
vn -0.328077 0.777287 -0.536834
vn -0.319996 0.781277 -0.535919
vn 0.883144 -0.359293 -0.301605
vn 0.883144 -0.359293 -0.301605
vn 0.883144 -0.359293 -0.301605
vn 0.883144 -0.359293 -0.301605
vn -0.744916 0.312995 -0.589181
vn -0.744916 0.312995 -0.589181
vn -0.744916 0.312995 -0.589181
vn -0.744916 0.312995 -0.589181
vn 0.655223 -0.472113 0.589739
vn 0.655223 -0.472113 0.589739
vn 0.655223 -0.472113 0.589739
vn 0.655223 -0.472113 0.589739
vn 0.439058 -0.368027 -0.819624
vn 0.439058 -0.368027 -0.819624
vn 0.439058 -0.368027 -0.819624
vn 0.439058 -0.368027 -0.819624
vn 0.694853 0.181848 -0.695781
vn 0.713444 0.179189 -0.677413
vn 0.713444 0.179189 -0.677413
vn 0.695281 0.181789 -0.695369
vn 0.694853 0.181848 -0.695781
vn 0.695281 0.181789 -0.695369
vn 0.686553 0.182974 -0.703680
vn 0.867478 0.131478 0.479786
vn 0.876700 0.233234 0.420712
vn 0.876700 0.233234 0.420712
vn 0.866966 0.128073 0.481630
vn 0.867478 0.131478 0.479786
vn 0.866966 0.128073 0.481630
vn 0.858754 0.081937 0.505795
vn 0.647714 -0.486279 0.586515
vn 0.647714 -0.486279 0.586515
vn 0.647714 -0.486279 0.586515
vn 0.647714 -0.486279 0.586515
vn 0.446452 -0.368395 -0.815454
vn 0.446452 -0.368395 -0.815454
vn 0.446452 -0.368395 -0.815454
vn 0.446452 -0.368395 -0.815454
vn -0.743880 0.313693 -0.590118
vn -0.743880 0.313693 -0.590118
vn -0.743880 0.313693 -0.590118
vn -0.743880 0.313693 -0.590118
vn -0.549486 0.199769 0.811269
vn -0.549486 0.199769 0.811269
vn -0.549486 0.199769 0.811269
vn -0.549486 0.199769 0.811269
s off
g LPChristal15
usemtl initialShadingGroup
f 312/365/1065 306/366/1066 304/367/1067 300/368/1068
f 305/369/1069 308/370/1070 313/371/1071 301/372/1072
f 315/373/1073 302/374/1074 310/375/1075 307/376/1076
f 312/365/1077 300/368/1078 301/372/1079 313/371/1080
f 312/365/1081 313/371/1082 299/377/1083
f 304/367/1084 305/369/1085 301/372/1086 300/368/1087
f 315/373/1088 307/376/1089 306/378/1090 312/379/1091
f 315/373/1092 312/379/1093 299/380/1094
f 309/381/1095 311/382/1096 303/383/1097 314/384/1098
f 310/375/1099 304/385/1100 306/378/1101 307/376/1102
f 305/369/1103 311/382/1104 309/381/1105 308/370/1106
f 310/375/1107 302/374/1108 303/383/1109 311/382/1110
f 314/384/1111 303/383/1112 302/374/1113 315/373/1114
f 314/384/1115 315/373/1116 299/380/1117
f 313/371/1118 308/370/1119 309/381/1120 314/384/1121
f 313/371/1122 314/384/1123 299/377/1124
f 296/386/1125 298/387/1126 311/382/1127 305/369/1128
f 310/375/1129 311/382/1130 298/387/1131 297/388/1132
f 297/388/1133 295/389/1134 304/385/1135 310/375/1136
f 295/390/1137 296/386/1138 305/369/1139 304/367/1140
g default
v -17.600960 3.314921 17.663578
v 14.363486 5.930281 16.663971
v -13.153975 27.230318 13.396880
v 16.563595 27.556225 16.693207
v -11.853505 27.868032 -14.579945
v 10.312483 27.804249 -19.352936
v -18.355556 3.801504 -22.878956
v 14.395418 7.353444 -19.742725
v -16.294319 30.301826 -1.346030
v 16.334122 17.104376 -24.137129
v -2.491025 0.895006 -24.843262
v -20.714764 15.809897 -23.962835
v 18.799528 2.696079 -1.143497
v -22.403727 -0.037700 -1.503891
v -3.630260 1.704382 21.468893
v 19.689020 18.316101 16.453630
v 0.829605 33.867386 21.046515
v -20.018497 14.635555 21.783796
v 18.456247 32.800880 -0.807825
v 0.810194 25.008844 -20.761921
v -3.471940 17.139023 30.380575
v 1.874862 38.360420 -0.466782
v -1.901798 12.899324 -32.215176
v -2.716484 -0.057969 -1.143517
v 26.381224 17.354338 -0.628317
v -26.462818 13.837104 -0.658891
v -18.043150 22.601170 -21.335995
v 12.679677 22.256372 -22.908031
v 9.366295 12.489745 -30.302591
v 17.164284 12.250607 -22.629074
v 7.566022 2.577679 -22.988991
v -2.225667 4.463182 -30.302591
v -12.257373 1.232437 -26.007656
v -20.471889 8.398942 -24.170040
v -2.649985 -0.057949 -14.361916
v -13.548337 -0.057969 -1.565817
v -21.027748 1.888222 -15.423409
v 17.292351 6.056109 -12.229745
v 8.876277 -0.057949 -1.394796
v 17.330313 3.850670 9.613870
v -2.525353 -0.057969 11.346505
v -20.527428 1.103112 9.742375
v 24.545425 9.206238 -0.779348
v 19.103348 18.054756 10.728083
v 22.388672 18.061747 -13.474440
v 23.960810 25.906305 -0.744701
v -26.465593 5.814416 -0.725110
v -24.260174 13.760840 -13.295412
v -24.660948 13.837125 10.659407
v -23.027960 22.422302 -1.087142
v -11.716152 2.026794 20.168283
v -3.171994 8.509735 28.468033
v -14.980288 15.957952 28.468054
v -19.767038 7.625194 21.324114
v 7.388371 3.674736 19.612106
v 17.979950 10.813884 18.158867
v 9.825340 17.958702 26.828297
v 18.746468 23.953342 17.893190
v 10.464592 31.094687 19.612106
v -2.353973 25.929331 27.070770
v -9.826156 29.229271 18.646929
v -17.130253 21.849669 16.973522
v 1.643273 37.937141 11.555549
v -7.335488 36.278732 -0.686409
v -15.368821 29.513380 6.321317
v 16.981482 30.115568 9.771471
v 10.953831 36.489235 -0.751011
v 13.301356 31.309641 -11.984737
v 6.915687 26.808598 -20.848770
v 2.154179 35.792072 -13.072408
v -5.324794 26.360476 -18.631088
v -11.992694 29.043213 -9.985345
v -1.288607 21.016191 -30.230103
v -12.807260 12.871267 -30.302591
v -11.875731 8.075871 26.667999
v 8.469094 9.791113 25.102190
v 9.760358 25.778198 24.955992
v -12.301367 24.041229 24.957691
v -7.064139 36.297745 10.518420
v 10.817717 32.916885 10.625737
v 9.330130 35.114517 -12.543091
v -4.101806 34.055660 -12.439188
v -10.879880 20.515570 -28.338528
v 8.199403 20.483797 -28.502579
v 8.485290 5.011413 -28.502579
v -12.762369 5.005761 -29.310253
v -12.752902 -0.057949 -16.594673
v 8.164176 -0.057930 -13.404346
v 8.043399 -0.057949 10.378452
v -12.360977 -0.057969 10.449125
v 21.569853 10.036522 10.594864
v 22.648638 12.241701 -12.546106
v 17.971842 24.954506 -12.957323
v 17.505049 24.922813 10.611878
v -24.841173 7.107797 -13.466053
v -24.482916 6.368077 10.829010
v -21.535280 21.918964 7.177400
v -18.994749 19.450563 -12.602979
vt 0.222188 0.990000
vt 0.154735 0.988923
vt 0.151691 0.957654
vt 0.215195 0.970250
vt 0.077342 0.951051
vt 0.094602 0.924199
vt 0.113854 0.897575
vt 0.170410 0.930524
vt 0.218042 0.942751
vt 0.014401 0.855819
vt 0.038189 0.844425
vt 0.010000 0.764979
vt 0.031423 0.759254
vt 0.063061 0.748458
vt 0.067610 0.831150
vt 0.098958 0.817062
vt 0.137147 0.865851
vt 0.086334 0.758984
vt 0.105117 0.762681
vt 0.123724 0.793121
vt 0.157214 0.828505
vt 0.181253 0.897976
vt 0.231143 0.904884
vt 0.198411 0.867882
vt 0.231244 0.871661
vt 0.218502 0.825075
vt 0.263056 0.852932
vt 0.186137 0.797031
vt 0.222688 0.763122
vt 0.255129 0.794672
vt 0.291147 0.829521
vt 0.150144 0.762336
vt 0.129057 0.738235
vt 0.168073 0.703894
vt 0.193150 0.731057
vt 0.238341 0.702166
vt 0.261669 0.725560
vt 0.223903 0.682198
vt 0.260605 0.666186
vt 0.278862 0.672050
vt 0.305464 0.693641
vt 0.282036 0.748483
vt 0.309608 0.786141
vt 0.316931 0.727605
vt 0.323434 0.769085
vt 0.368247 0.714518
vt 0.366350 0.766287
vt 0.341467 0.672273
vt 0.369400 0.652398
vt 0.401891 0.707533
vt 0.397962 0.766381
vt 0.303325 0.638814
vt 0.266823 0.637239
vt 0.258961 0.609217
vt 0.318706 0.608817
vt 0.333409 0.583875
vt 0.394595 0.631475
vt 0.253323 0.587706
vt 0.259165 0.564859
vt 0.339995 0.564859
vt 0.410759 0.615430
vt 0.431253 0.699284
vt 0.427711 0.763536
vt 0.446263 0.694324
vt 0.447412 0.759116
vt 0.459298 0.969437
vt 0.445354 0.936546
vt 0.491701 0.938184
vt 0.497861 0.979332
vt 0.450215 0.888771
vt 0.501450 0.889080
vt 0.565795 0.888040
vt 0.565030 0.940812
vt 0.505468 0.836696
vt 0.563353 0.831296
vt 0.620066 0.834412
vt 0.626628 0.885366
vt 0.623396 0.933060
vt 0.566518 0.983890
vt 0.457473 0.838501
vt 0.468063 0.795397
vt 0.506757 0.783544
vt 0.564038 0.780820
vt 0.617400 0.785790
vt 0.655207 0.796685
vt 0.667941 0.833814
vt 0.676748 0.888798
vt 0.621384 0.973240
vt 0.671771 0.928712
vt 0.661725 0.959030
vt 0.026783 0.679384
vt 0.046156 0.697461
vt 0.082348 0.604932
vt 0.099360 0.630798
vt 0.118648 0.652584
vt 0.073865 0.717630
vt 0.172605 0.570291
vt 0.180065 0.596562
vt 0.191850 0.617568
vt 0.209455 0.649338
vt 0.143113 0.676863
vt 0.104273 0.730184
vt 0.439352 0.834406
vt 0.415664 0.836265
vt 0.382605 0.934240
vt 0.363168 0.918286
vt 0.344149 0.895306
vt 0.388958 0.830308
vt 0.300764 0.983637
vt 0.291853 0.962455
vt 0.285840 0.932198
vt 0.284832 0.890574
vt 0.320363 0.864654
vt 0.358719 0.813671
vn -0.444783 -0.787740 0.426185
vn -0.175502 -0.879004 0.443340
vn -0.298611 -0.476764 0.826757
vn -0.738201 -0.359008 0.571116
vn -0.175502 -0.879004 0.443340
vn -0.121902 -0.717433 0.685879
vn -0.121902 -0.717433 0.685879
vn -0.298611 -0.476764 0.826757
vn -0.298611 -0.476764 0.826757
vn -0.121902 -0.717433 0.685879
vn -0.155911 -0.247183 0.956343
vn -0.155911 -0.247183 0.956343
vn -0.738201 -0.359008 0.571116
vn -0.298611 -0.476764 0.826757
vn -0.155911 -0.247183 0.956343
vn -0.639827 -0.254233 0.725250
vn -0.121902 -0.717433 0.685879
vn 0.255343 -0.687485 0.679827
vn 0.255343 -0.687485 0.679827
vn -0.121902 -0.717433 0.685879
vn 0.255343 -0.687485 0.679827
vn 0.494265 -0.606517 0.622768
vn 0.494265 -0.606517 0.622768
vn 0.255343 -0.687485 0.679827
vn 0.255343 -0.687485 0.679827
vn 0.494265 -0.606517 0.622768
vn 0.665846 -0.131230 0.734458
vn 0.665846 -0.131230 0.734458
vn -0.121902 -0.717433 0.685879
vn 0.255343 -0.687485 0.679827
vn 0.665846 -0.131230 0.734458
vn -0.155911 -0.247183 0.956343
vn -0.155911 -0.247183 0.956343
vn 0.665846 -0.131230 0.734458
vn 0.201933 0.280008 0.938519
vn 0.201933 0.280008 0.938519
vn 0.665846 -0.131230 0.734458
vn 0.665846 -0.131230 0.734458
vn 0.680305 0.074384 0.729145
vn 0.201933 0.280008 0.938519
vn 0.201933 0.280008 0.938519
vn 0.680305 0.074384 0.729145
vn 0.589638 0.539032 0.601475
vn 0.589638 0.539032 0.601475
vn 0.201933 0.280008 0.938519
vn 0.201933 0.280008 0.938519
vn 0.589638 0.539032 0.601475
vn 0.206782 0.601303 0.771800
vn -0.639827 -0.254233 0.725250
vn -0.155911 -0.247183 0.956343
vn -0.770320 0.497380 0.399023
vn -0.770320 0.497380 0.399023
vn -0.155911 -0.247183 0.956343
vn -0.155911 -0.247183 0.956343
vn 0.201933 0.280008 0.938519
vn -0.770320 0.497380 0.399023
vn -0.770320 0.497380 0.399023
vn 0.201933 0.280008 0.938519
vn 0.206782 0.601303 0.771800
vn -0.358092 0.716716 0.598405
vn -0.770320 0.497380 0.399023
vn -0.770320 0.497380 0.399023
vn -0.358092 0.716716 0.598405
vn -0.717010 0.656610 0.234008
vn -0.717010 0.656610 0.234008
vn -0.358092 0.716716 0.598405
vn -0.726894 0.596325 0.340620
vn -0.726894 0.596325 0.340620
vn -0.358092 0.716716 0.598405
vn 0.206782 0.601303 0.771800
vn -0.346681 0.823030 0.449926
vn -0.726894 0.596325 0.340620
vn -0.726894 0.596325 0.340620
vn -0.346681 0.823030 0.449926
vn -0.204476 0.978717 0.017385
vn -0.204476 0.978717 0.017385
vn -0.726894 0.596325 0.340620
vn -0.726894 0.596325 0.340620
vn -0.204476 0.978717 0.017385
vn -0.605732 0.792519 0.070727
vn 0.206782 0.601303 0.771800
vn 0.589638 0.539032 0.601475
vn 0.397047 0.866865 0.301494
vn -0.346681 0.823030 0.449926
vn 0.589638 0.539032 0.601475
vn 0.589638 0.539032 0.601475
vn 0.504476 0.825859 0.251915
vn 0.397047 0.866865 0.301494
vn 0.397047 0.866865 0.301494
vn 0.504476 0.825859 0.251915
vn 0.427205 0.860783 0.276674
vn 0.427205 0.860783 0.276674
vn -0.346681 0.823030 0.449926
vn 0.397047 0.866865 0.301494
vn 0.427205 0.860783 0.276674
vn -0.204476 0.978717 0.017385
vn -0.204476 0.978717 0.017385
vn 0.427205 0.860783 0.276674
vn 0.155200 0.973846 -0.165942
vn 0.155200 0.973846 -0.165942
vn 0.427205 0.860783 0.276674
vn 0.427205 0.860783 0.276674
vn 0.536114 0.803596 -0.258487
vn 0.155200 0.973846 -0.165942
vn 0.155200 0.973846 -0.165942
vn 0.536114 0.803596 -0.258487
vn 0.423491 0.647294 -0.633771
vn 0.423491 0.647294 -0.633771
vn 0.155200 0.973846 -0.165942
vn 0.155200 0.973846 -0.165942
vn 0.423491 0.647294 -0.633771
vn -0.029098 0.645345 -0.763337
vn -0.605732 0.792519 0.070727
vn -0.204476 0.978717 0.017385
vn -0.539893 0.773667 -0.331596
vn -0.539893 0.773666 -0.331596
vn -0.204476 0.978717 0.017385
vn -0.204476 0.978717 0.017385
vn 0.155200 0.973846 -0.165942
vn -0.539893 0.773667 -0.331596
vn -0.539893 0.773667 -0.331596
vn 0.155200 0.973846 -0.165942
vn -0.029098 0.645345 -0.763337
vn -0.191014 0.606391 -0.771883
vn -0.539893 0.773666 -0.331596
vn -0.539893 0.773667 -0.331596
vn -0.191014 0.606391 -0.771883
vn -0.423082 0.720237 -0.549782
vn -0.423082 0.720237 -0.549782
vn -0.191014 0.606391 -0.771883
vn -0.155330 0.866650 -0.474121
vn -0.155330 0.866650 -0.474121
vn -0.191014 0.606391 -0.771883
vn -0.029098 0.645345 -0.763337
vn -0.062822 0.897949 -0.435593
vn -0.155330 0.866650 -0.474121
vn -0.155330 0.866650 -0.474121
vn -0.062822 0.897949 -0.435593
vn -0.182521 0.266548 -0.946382
vn -0.182521 0.266548 -0.946382
vn -0.155330 0.866650 -0.474121
vn -0.155330 0.866650 -0.474121
vn -0.182521 0.266548 -0.946382
vn -0.526465 0.405393 -0.747323
vn -0.029098 0.645345 -0.763337
vn 0.423491 0.647294 -0.633771
vn -0.015390 0.856736 -0.515525
vn -0.062822 0.897949 -0.435593
vn 0.423491 0.647294 -0.633771
vn 0.423491 0.647294 -0.633771
vn 0.325896 0.700066 -0.635374
vn -0.015390 0.856736 -0.515525
vn -0.015390 0.856736 -0.515525
vn 0.325896 0.700066 -0.635374
vn 0.554428 0.374580 -0.743169
vn 0.554428 0.374580 -0.743169
vn -0.062822 0.897949 -0.435593
vn -0.015390 0.856736 -0.515525
vn 0.554428 0.374580 -0.743169
vn -0.182521 0.266548 -0.946382
vn -0.182521 0.266548 -0.946382
vn 0.554428 0.374580 -0.743169
vn 0.163304 -0.235843 -0.957972
vn 0.163304 -0.235843 -0.957972
vn 0.554428 0.374580 -0.743169
vn 0.554428 0.374580 -0.743169
vn 0.685457 -0.191281 -0.702538
vn 0.163304 -0.235843 -0.957972
vn 0.163304 -0.235843 -0.957972
vn 0.685457 -0.191281 -0.702538
vn 0.685944 -0.670097 -0.283638
vn 0.685944 -0.670097 -0.283638
vn 0.163304 -0.235843 -0.957972
vn 0.163304 -0.235843 -0.957972
vn 0.685944 -0.670097 -0.283638
vn 0.174228 -0.871714 -0.457995
vn -0.526465 0.405393 -0.747323
vn -0.182521 0.266548 -0.946382
vn -0.605138 -0.052227 -0.794406
vn -0.605138 -0.052227 -0.794406
vn -0.182521 0.266548 -0.946382
vn -0.182521 0.266548 -0.946382
vn 0.163304 -0.235843 -0.957972
vn -0.605138 -0.052227 -0.794406
vn -0.605138 -0.052227 -0.794406
vn 0.163304 -0.235843 -0.957972
vn 0.174228 -0.871714 -0.457995
vn -0.027790 -0.766581 -0.641546
vn -0.605138 -0.052227 -0.794406
vn -0.605138 -0.052227 -0.794406
vn -0.027790 -0.766581 -0.641546
vn -0.592710 -0.522142 -0.613240
vn -0.592710 -0.522142 -0.613240
vn -0.027790 -0.766581 -0.641546
vn -0.355259 -0.903863 -0.238375
vn -0.355259 -0.903863 -0.238375
vn -0.027790 -0.766581 -0.641546
vn 0.174228 -0.871714 -0.457995
vn 0.002269 -0.993708 -0.111980
vn -0.355259 -0.903863 -0.238375
vn -0.355259 -0.903863 -0.238375
vn 0.002269 -0.993708 -0.111980
vn 0.000000 -1.000000 -0.000001
vn 0.000000 -1.000000 -0.000001
vn 0.002269 -0.993708 -0.111980
vn 0.000002 -1.000000 -0.000001
vn 0.000002 -1.000000 -0.000001
vn 0.000000 -1.000000 -0.000001
vn 0.000000 -1.000000 -0.000001
vn 0.000002 -1.000000 -0.000001
vn 0.000002 -1.000000 0.000001
vn 0.000002 -1.000000 0.000001
vn 0.000000 -1.000000 -0.000001
vn 0.000000 -1.000000 -0.000001
vn 0.000002 -1.000000 0.000001
vn 0.000000 -1.000000 0.000001
vn -0.355259 -0.903863 -0.238375
vn -0.355259 -0.903863 -0.238375
vn 0.000000 -1.000000 -0.000001
vn -0.119039 -0.990068 -0.074798
vn 0.174228 -0.871714 -0.457995
vn 0.685944 -0.670097 -0.283638
vn 0.000002 -1.000000 -0.000001
vn 0.002269 -0.993708 -0.111980
vn 0.685944 -0.670097 -0.283638
vn 0.685944 -0.670097 -0.283638
vn 0.592998 -0.749736 -0.293681
vn 0.000002 -1.000000 -0.000001
vn 0.000002 -1.000000 -0.000001
vn 0.592998 -0.749736 -0.293681
vn 0.426287 -0.888429 -0.170213
vn 0.000002 -1.000000 -0.000001
vn 0.000002 -1.000000 -0.000001
vn 0.426287 -0.888429 -0.170213
vn 0.328533 -0.940945 0.081788
vn 0.000002 -1.000000 0.000001
vn 0.000002 -1.000000 0.000001
vn 0.328533 -0.940945 0.081788
vn 0.494265 -0.606517 0.622768
vn 0.255343 -0.687485 0.679827
vn 0.000002 -1.000000 0.000001
vn 0.000002 -1.000000 0.000001
vn 0.255343 -0.687485 0.679827
vn -0.121902 -0.717433 0.685879
vn -0.119039 -0.990068 -0.074798
vn 0.000000 -1.000000 -0.000001
vn 0.000000 -1.000000 0.000001
vn -0.071313 -0.995753 0.058227
vn 0.000000 -1.000000 0.000001
vn 0.000002 -1.000000 0.000001
vn -0.121902 -0.717433 0.685879
vn -0.175502 -0.879004 0.443340
vn -0.071313 -0.995753 0.058227
vn 0.000000 -1.000000 0.000001
vn -0.175502 -0.879004 0.443340
vn -0.444783 -0.787740 0.426185
vn 0.494265 -0.606517 0.622768
vn 0.328533 -0.940945 0.081788
vn 0.690908 -0.585262 0.424398
vn 0.494265 -0.606517 0.622768
vn 0.328533 -0.940945 0.081788
vn 0.426287 -0.888429 -0.170213
vn 0.758065 -0.618225 0.207691
vn 0.690908 -0.585262 0.424398
vn 0.690908 -0.585262 0.424398
vn 0.758065 -0.618225 0.207691
vn 0.911899 0.028378 0.409433
vn 0.911899 0.028378 0.409433
vn 0.494265 -0.606517 0.622768
vn 0.690908 -0.585262 0.424398
vn 0.911899 0.028378 0.409433
vn 0.665846 -0.131230 0.734458
vn 0.426287 -0.888429 -0.170213
vn 0.592998 -0.749736 -0.293681
vn 0.722293 -0.630561 -0.284051
vn 0.758065 -0.618225 0.207691
vn 0.592998 -0.749736 -0.293681
vn 0.685944 -0.670097 -0.283638
vn 0.685457 -0.191281 -0.702538
vn 0.722293 -0.630561 -0.284051
vn 0.722293 -0.630561 -0.284051
vn 0.685457 -0.191281 -0.702538
vn 0.554428 0.374580 -0.743169
vn 0.874131 -0.021477 -0.485215
vn 0.758065 -0.618225 0.207691
vn 0.722293 -0.630561 -0.284051
vn 0.874131 -0.021477 -0.485215
vn 0.911899 0.028378 0.409433
vn 0.911899 0.028378 0.409433
vn 0.874131 -0.021477 -0.485215
vn 0.855126 0.387492 -0.344397
vn 0.855126 0.387492 -0.344397
vn 0.874131 -0.021477 -0.485215
vn 0.554428 0.374580 -0.743169
vn 0.325896 0.700066 -0.635374
vn 0.855126 0.387492 -0.344397
vn 0.855126 0.387492 -0.344397
vn 0.325896 0.700066 -0.635374
vn 0.423491 0.647294 -0.633771
vn 0.536114 0.803596 -0.258487
vn 0.855126 0.387492 -0.344397
vn 0.855126 0.387492 -0.344397
vn 0.536114 0.803596 -0.258487
vn 0.427205 0.860783 0.276674
vn 0.665846 -0.131230 0.734458
vn 0.911899 0.028378 0.409433
vn 0.969660 0.210221 -0.124765
vn 0.680305 0.074384 0.729145
vn 0.911899 0.028378 0.409433
vn 0.911899 0.028378 0.409433
vn 0.855126 0.387492 -0.344397
vn 0.969660 0.210221 -0.124765
vn 0.969660 0.210221 -0.124765
vn 0.855126 0.387492 -0.344397
vn 0.427205 0.860783 0.276674
vn 0.504476 0.825859 0.251915
vn 0.680305 0.074384 0.729145
vn 0.969660 0.210221 -0.124765
vn 0.504476 0.825859 0.251915
vn 0.589638 0.539032 0.601475
vn -0.592710 -0.522142 -0.613240
vn -0.355259 -0.903863 -0.238375
vn -0.799483 -0.456405 -0.390541
vn -0.605138 -0.052227 -0.794406
vn -0.355259 -0.903863 -0.238375
vn -0.119039 -0.990068 -0.074798
vn -0.822662 -0.545987 -0.158512
vn -0.799483 -0.456405 -0.390541
vn -0.799483 -0.456405 -0.390541
vn -0.822662 -0.545987 -0.158512
vn -0.988253 0.041684 -0.147035
vn -0.988253 0.041684 -0.147035
vn -0.605138 -0.052227 -0.794406
vn -0.799483 -0.456405 -0.390541
vn -0.988253 0.041684 -0.147035
vn -0.526465 0.405393 -0.747323
vn -0.119039 -0.990068 -0.074798
vn -0.071313 -0.995753 0.058227
vn -0.783966 -0.595063 0.176910
vn -0.822662 -0.545987 -0.158512
vn -0.071313 -0.995753 0.058227
vn -0.444783 -0.787740 0.426185
vn -0.738201 -0.359008 0.571116
vn -0.783966 -0.595063 0.176910
vn -0.783966 -0.595063 0.176910
vn -0.738201 -0.359008 0.571116
vn -0.639827 -0.254233 0.725250
vn -0.915920 -0.035178 0.399816
vn -0.822662 -0.545987 -0.158512
vn -0.783966 -0.595063 0.176910
vn -0.915920 -0.035178 0.399816
vn -0.988253 0.041684 -0.147035
vn -0.988253 0.041684 -0.147035
vn -0.915920 -0.035178 0.399816
vn -0.904599 0.394151 0.162316
vn -0.904599 0.394151 0.162316
vn -0.915920 -0.035178 0.399816
vn -0.639827 -0.254233 0.725250
vn -0.770320 0.497380 0.399023
vn -0.904599 0.394151 0.162316
vn -0.904599 0.394151 0.162316
vn -0.770320 0.497380 0.399023
vn -0.717010 0.656610 0.234008
vn -0.726894 0.596325 0.340620
vn -0.904599 0.394151 0.162316
vn -0.904599 0.394151 0.162316
vn -0.726894 0.596325 0.340620
vn -0.605732 0.792519 0.070727
vn -0.526465 0.405393 -0.747323
vn -0.988253 0.041684 -0.147035
vn -0.837035 0.545045 -0.047943
vn -0.155330 0.866650 -0.474121
vn -0.988253 0.041684 -0.147035
vn -0.988253 0.041684 -0.147035
vn -0.904599 0.394151 0.162316
vn -0.837035 0.545045 -0.047943
vn -0.837035 0.545045 -0.047943
vn -0.904599 0.394151 0.162316
vn -0.605732 0.792519 0.070727
vn -0.539893 0.773666 -0.331596
vn -0.155330 0.866650 -0.474121
vn -0.837035 0.545045 -0.047943
vn -0.539893 0.773666 -0.331596
vn -0.423082 0.720237 -0.549782
s off
g TerraLP1
usemtl initialShadingGroup
f 316/391/1141 366/392/1142 390/393/1143 369/394/1144
f 366/392/1145 330/395/1146 367/396/1147 390/393/1148
f 390/393/1149 367/396/1150 336/397/1151 368/398/1152
f 369/394/1153 390/393/1154 368/398/1155 333/399/1156
f 330/395/1157 370/400/1158 391/401/1159 367/396/1160
f 370/400/1161 317/402/1162 371/403/1163 391/401/1164
f 391/401/1165 371/403/1166 331/404/1167 372/405/1168
f 367/396/1169 391/401/1170 372/405/1171 336/397/1172
f 336/397/1173 372/405/1174 392/406/1175 375/407/1176
f 372/405/1177 331/404/1178 373/408/1179 392/406/1180
f 392/406/1181 373/408/1182 319/409/1183 374/410/1184
f 375/407/1185 392/406/1186 374/410/1187 332/411/1188
f 333/399/1189 368/398/1190 393/412/1191 377/413/1192
f 368/398/1193 336/397/1194 375/407/1195 393/412/1196
f 393/412/1197 375/407/1198 332/411/1199 376/414/1200
f 377/413/1201 393/412/1202 376/414/1203 318/415/1204
f 318/415/1205 376/414/1206 394/416/1207 380/417/1208
f 376/414/1209 332/411/1210 378/418/1211 394/416/1212
f 394/416/1213 378/418/1214 337/419/1215 379/420/1216
f 380/417/1217 394/416/1218 379/420/1219 324/421/1220
f 332/411/1221 374/410/1222 395/422/1223 378/418/1224
f 374/410/1225 319/409/1226 381/423/1227 395/422/1228
f 395/422/1229 381/423/1230 334/424/1231 382/425/1232
f 378/418/1233 395/422/1234 382/425/1235 337/419/1236
f 337/419/1237 382/425/1238 396/426/1239 385/427/1240
f 382/425/1241 334/424/1242 383/428/1243 396/426/1244
f 396/426/1245 383/428/1246 321/429/1247 384/430/1248
f 385/427/1249 396/426/1250 384/430/1251 335/431/1252
f 324/421/1253 379/420/1254 397/432/1255 387/433/1256
f 379/420/1257 337/419/1258 385/427/1259 397/432/1260
f 397/432/1261 385/427/1262 335/431/1263 386/434/1264
f 387/433/1265 397/432/1266 386/434/1267 320/435/1268
f 320/435/1269 386/434/1270 398/436/1271 342/437/1272
f 386/434/1273 335/431/1274 388/438/1275 398/436/1276
f 398/436/1277 388/438/1278 338/439/1279 389/440/1280
f 342/437/1281 398/436/1282 389/440/1283 327/441/1284
f 335/431/1285 384/430/1286 399/442/1287 388/438/1288
f 384/430/1289 321/429/1290 343/443/1291 399/442/1292
f 399/442/1293 343/443/1294 325/444/1295 344/445/1296
f 388/438/1297 399/442/1298 344/445/1299 338/439/1300
f 338/439/1301 344/445/1302 400/446/1303 347/447/1304
f 344/445/1305 325/444/1306 345/448/1307 400/446/1308
f 400/446/1309 345/448/1310 323/449/1311 346/450/1312
f 347/447/1313 400/446/1314 346/450/1315 326/451/1316
f 327/441/1317 389/440/1318 401/452/1319 349/453/1320
f 389/440/1321 338/439/1322 347/447/1323 401/452/1324
f 401/452/1325 347/447/1326 326/451/1327 348/454/1328
f 349/453/1329 401/452/1330 348/454/1331 322/455/1332
f 322/456/1333 348/457/1334 402/458/1335 352/459/1336
f 348/457/1337 326/460/1338 350/461/1339 402/458/1340
f 402/458/1341 350/461/1342 339/462/1343 351/463/1344
f 350/461/1345 403/464/1346 354/465/1347 339/462/1348
f 339/462/1349 354/465/1350 404/466/1351 356/467/1352
f 351/463/1353 339/462/1354 356/467/1355 405/468/1356
f 352/459/1357 402/458/1358 351/463/1359 329/469/1360
f 326/460/1361 346/470/1362 403/464/1363 350/461/1364
f 346/470/1365 323/471/1366 353/472/1367 403/464/1368
f 403/464/1369 353/472/1370 328/473/1371 354/465/1372
f 354/465/1373 328/473/1374 355/474/1375 404/466/1376
f 404/466/1377 355/474/1378 317/475/1379 370/476/1380
f 356/467/1381 404/466/1382 370/476/1383 330/477/1384
f 329/469/1385 351/463/1386 405/468/1387 357/478/1388
f 405/468/1389 356/467/1390 330/477/1391 366/479/1392
f 357/478/1393 405/468/1394 366/479/1395 316/480/1396
f 317/402/1397 355/481/1398 406/482/1399 371/403/1400
f 355/481/1401 328/483/1402 358/484/1403 406/482/1404
f 406/482/1405 358/484/1406 340/485/1407 359/486/1408
f 371/403/1409 406/482/1410 359/486/1411 331/404/1412
f 328/483/1413 353/487/1414 407/488/1415 358/484/1416
f 353/487/1417 323/449/1418 345/448/1419 407/488/1420
f 407/488/1421 345/448/1422 325/444/1423 360/489/1424
f 358/484/1425 407/488/1426 360/489/1427 340/485/1428
f 340/485/1429 360/489/1430 408/490/1431 361/491/1432
f 360/489/1433 325/444/1434 343/443/1435 408/490/1436
f 408/490/1437 343/443/1438 321/429/1439 383/428/1440
f 361/491/1441 408/490/1442 383/428/1443 334/424/1444
f 331/404/1445 359/486/1446 409/492/1447 373/408/1448
f 359/486/1449 340/485/1450 361/491/1451 409/492/1452
f 409/492/1453 361/491/1454 334/424/1455 381/423/1456
f 373/408/1457 409/492/1458 381/423/1459 319/409/1460
f 322/455/1461 352/493/1462 410/494/1463 349/453/1464
f 352/493/1465 329/495/1466 362/496/1467 410/494/1468
f 410/494/1469 362/496/1470 341/497/1471 363/498/1472
f 349/453/1473 410/494/1474 363/498/1475 327/441/1476
f 329/495/1477 357/499/1478 411/500/1479 362/496/1480
f 357/499/1481 316/391/1482 369/394/1483 411/500/1484
f 411/500/1485 369/394/1486 333/399/1487 364/501/1488
f 362/496/1489 411/500/1490 364/501/1491 341/497/1492
f 341/497/1493 364/501/1494 412/502/1495 365/503/1496
f 364/501/1497 333/399/1498 377/413/1499 412/502/1500
f 412/502/1501 377/413/1502 318/415/1503 380/417/1504
f 365/503/1505 412/502/1506 380/417/1507 324/421/1508
f 327/441/1509 363/498/1510 413/504/1511 342/437/1512
f 363/498/1513 341/497/1514 365/503/1515 413/504/1516
f 413/504/1517 365/503/1518 324/421/1519 387/433/1520
f 342/437/1521 413/504/1522 387/433/1523 320/435/1524
